<svg xmlns="http://www.w3.org/2000/svg" viewBox="0 0 354.68 822.27"><defs><style>.cls-1{fill:#1f00b9;}</style></defs><title>_N3</title><g id="Слой_2" data-name="Слой 2"><g id="Слой_1-2" data-name="Слой 1"><path class="cls-1" d="M139.63,322.28c131.88-68.1,206-170.59,149.72-261.85C266.61,23.57,225.52,0,172.85,0,131.61,0,54.79,25.6,5.56,98.72l11.29,11.07C49.13,69.21,87.2,41,138,41c62,0,100.12,40.53,100.12,96.56,0,78.09-79.12,150.3-178.82,216l1.59,12.69C74,359.14,94.3,352,123,352c93.1,0,140.85,80,140.85,164.72C263.8,611,207.69,705.31,0,809.14l6,13.13c237.54-105,402-271.71,332.73-415.12C310.32,348.41,234.21,315,139.63,322.28Z"/></g></g></svg>