<svg xmlns="http://www.w3.org/2000/svg" viewBox="0 0 265.25 216.15"><defs><style>.cls-1{fill:none;stroke:#34ff00;stroke-miterlimit:10;stroke-width:4px;opacity:0.4;}</style></defs><title>ae-015</title><g id="Слой_2" data-name="Слой 2"><g id="Слой_1-2" data-name="Слой 1"><polygon class="cls-1" points="246.5 70.65 262.21 29.42 250.49 7.65 250.14 24.99 229.18 19.37 231.85 29.95 216.13 45.02 132.86 36.33 140.25 48.27 61.35 41.02 48.01 18.79 37.48 15.97 36.4 27.78 22.12 24.39 24.14 46.45 8.83 95.58 15.24 144.28 2.53 157.23 31.1 202.93 31.61 211.32 40.4 201.69 52.48 211.25 56.14 196.89 59.77 201.17 65.45 186.34 80.72 190.56 76.02 177.13 80.12 161.33 153.15 152.96 162.59 156.41 161.7 164.43 212.53 157.96 207.36 170.24 148.82 190.97 143.16 206.67 158.6 201.65 163.42 206 187.29 197.27 192.41 203 207.85 198.65 217.84 198.72 222.86 204.92 257.75 147.67 263.19 99.3 246.5 70.65"/><polyline class="cls-1" points="79.07 70.46 91.94 83.33 76.76 92.9"/><polyline class="cls-1" points="210.38 67.5 196.86 79.7 221.6 92.9"/><polyline class="cls-1" points="122.62 114.67 154.63 127.21 183.99 114.67"/></g></g></svg>