<svg xmlns="http://www.w3.org/2000/svg" viewBox="0 0 326.4 213.38"><defs><style>.cls-1{opacity:0.67;}.cls-2{fill:none;stroke:#ff2869;stroke-miterlimit:10;stroke-width:5px;}</style></defs><title>ae-002</title><g id="Слой_2" data-name="Слой 2"><g id="Слой_1-2" data-name="Слой 1"><g class="cls-1"><polyline class="cls-2" points="97.91 151.3 102.14 162.67 123.3 162.43"/><polyline class="cls-2" points="52.84 116.36 55.93 128.59 39.14 119.21"/><polyline class="cls-2" points="189.2 164.13 170.16 162.5 178.93 174.97"/><polyline class="cls-2" points="224.05 147.62 230.19 162.67 230.19 193.54"/><polyline class="cls-2" points="39.14 34.59 5.37 53.34 2.51 121.48 16.18 183.61 38.82 202.19 46.6 194.32 46.6 194.32 65.35 200.95 73.93 191.31 91.1 204.25 90 183.3 159.53 176.38 169.55 186.99 172.39 203.51 186.91 195.13 191.7 197.22 194.5 201.66 202.49 195.39 217.71 192.95 224.27 207.23 230.68 192.39 274.22 165.37 302.52 160.52 322.1 129.9 276.05 125.28 265.71 111.73 248.33 105.27 228.85 82.14 205.38 69.08 184.03 34.49 169.7 46.38 104.42 5.79 111.88 28.04 28.49 21.12 52.72 51.75"/></g></g></g></svg>