<svg xmlns="http://www.w3.org/2000/svg" viewBox="0 0 187.92 243.45"><defs><style>.cls-1{opacity:0.61;}.cls-2{fill:none;stroke:#ff5c4f;stroke-miterlimit:10;stroke-width:4px;}</style></defs><title>ae-014</title><g id="Слой_2" data-name="Слой 2"><g id="Слой_1-2" data-name="Слой 1"><g class="cls-1"><polygon class="cls-2" points="4.31 3.77 38.46 16.71 43.91 37.27 67.52 38.45 69.16 19.95 110.37 13.1 97.28 42.29 75.51 44.63 79.68 57.04 73.78 69.02 101.03 72.78 101.38 82.06 112.97 108.65 70.99 98.76 66.19 84.01 67.23 72.37 47.02 70.11 42.82 79.65 43.15 95.2 9.77 108.59 15.89 79.88 21.13 70.44 35.38 70.44 37.64 65.67 33.54 55.01 37.32 44.87 32.46 42.21 16.76 41.97 14.36 22.36 4.31 3.77"/><polyline class="cls-2" points="83.39 101.68 112.47 122.68 110.3 135.66 123.63 126.41 127.47 146.81 112.97 178.16 131.03 182.5 146.03 224.91 130.7 107.44 153.15 85.07 168.95 74.41 185.48 73.87 176.74 31.29 174.82 47.86 160.74 39.91 162.81 58.08 149.24 58.17 152.09 72.43 125.95 94.16 116.72 76.29 109.17 99.92"/><polygon class="cls-2" points="72.6 127.72 46.69 132.98 46.14 155.43 64.53 145.82 72.6 127.72"/><polygon class="cls-2" points="72.6 184.29 46.69 189.55 46.14 212.01 64.53 202.4 72.6 184.29"/><polygon class="cls-2" points="102.16 184.29 76.25 189.55 75.7 212.01 94.09 202.4 102.16 184.29"/><polygon class="cls-2" points="42.81 46.79 46.82 52.09 49.73 46.79 51.88 50.64 54.36 53.11 57.43 47.61 60.78 53.53 63.34 52.75 66.5 49.13 68.44 46.86 64.94 65.63 59.4 59.49 58.16 64.3 55.41 65.08 54.27 60.38 51.2 57.79 49.96 62.12 45.66 64.54 43.97 65.34 42.81 46.79"/><line class="cls-2" x1="64.53" y1="145.82" x2="112.97" y2="178.16"/><line class="cls-2" x1="72.6" y1="184.29" x2="88.75" y2="161.99"/><line class="cls-2" x1="89.58" y1="186.85" x2="112.97" y2="178.16"/></g></g></g></svg>