<svg xmlns="http://www.w3.org/2000/svg" viewBox="0 0 265.83 201.68"><defs><style>.cls-1{opacity:0.42;}.cls-2{fill:none;stroke:#ff4e07;stroke-miterlimit:10;stroke-width:4px;}</style></defs><title>ae-008</title><g id="Слой_2" data-name="Слой 2"><g id="Слой_1-2" data-name="Слой 1"><g class="cls-1"><polyline class="cls-2" points="40.28 113.91 59.68 198.25 78.85 199.57 85.1 179.19 201.77 184.61 230.34 196.3 250.21 195.16 255.76 156.32 260.08 148.97 263.74 61.3"/><polyline class="cls-2" points="91.41 135.3 94.4 139.25 98.41 136.63"/><polyline class="cls-2" points="131.74 115.97 122.82 119.95 128.74 123.3"/><polyline class="cls-2" points="59.4 125.81 64.87 121.99 55.02 118.45"/><polyline class="cls-2" points="95.08 110.97 92.38 80.58 67.04 56.85 48.74 52.3 42.41 109.66 40.28 113.91 39.71 141.99 35.44 135.66 29.81 144.8 25.67 137.37 16.48 142.22 2.1 64.13 28.36 19.48 90.77 2.01 249.61 8.85 263.74 61.3 240.91 131.13 176.48 167.9 176.8 159.53 173.6 155.81 166.19 153.45 164.76 147 158.53 145.23 163.91 142.8 193.15 84.17 213.41 51.63 151.4 54.82 109.6 67.81 92.38 80.58"/></g></g></g></svg>