<svg xmlns="http://www.w3.org/2000/svg" viewBox="0 0 183.64 250.13"><defs><style>.cls-1,.cls-3{opacity:0.52;}.cls-2,.cls-3{fill:none;stroke:#bc2892;stroke-miterlimit:10;stroke-width:6px;}</style></defs><title>ae-019</title><g id="Слой_2" data-name="Слой 2"><g id="Слой_1-2" data-name="Слой 1"><g class="cls-1"><polyline class="cls-2" points="104.7 142.92 105.96 130.15 82.94 125.66 83.91 110.86"/><polyline class="cls-2" points="93.64 127.75 93.64 140.66 77.39 139.41"/><polyline class="cls-2" points="83.41 118.87 71.51 118.36 69.67 116.06 70.88 110.1"/><line class="cls-2" x1="83.91" y1="139.66" x2="83.66" y2="148.93"/></g><g class="cls-1"><polyline class="cls-2" points="119.48 121.13 119.96 109.33 143.03 108.85"/><polyline class="cls-2" points="132 111.11 132.01 122.47 140.42 124.13 150.54 124.13"/><polyline class="cls-2" points="141.78 124.88 140.53 138.05 126.74 137.66"/></g><g class="cls-1"><polyline class="cls-2" points="114.22 140.41 115.46 150.68 117.87 157.36 99.94 157.95"/><line class="cls-2" x1="115.72" y1="150.69" x2="128.25" y2="149.68"/><line class="cls-2" x1="106.95" y1="157.2" x2="108.22" y2="151.87"/></g><g class="cls-1"><polyline class="cls-2" points="63.87 134.9 65.83 156.19 63.49 161.71 84.16 160.46"/><line class="cls-2" x1="75.14" y1="159.95" x2="74.64" y2="149.68"/><polyline class="cls-2" points="66.12 145.18 56.32 144.67 55.85 136.91"/></g><g class="cls-1"><polyline class="cls-2" points="158.56 137.16 160.5 157.97 137.77 155.7"/><line class="cls-2" x1="148.04" y1="156.2" x2="146.53" y2="145.68"/><polyline class="cls-2" points="159.56 146.18 167.83 146.17 169.33 152.69"/></g><polygon class="cls-3" points="42.58 188.9 49.29 155.77 36.39 116 62.39 45.49 78.13 23.89 68.55 55.23 82.82 87.69 84.8 96.83 122.8 100.5 154.84 74.53 151.96 65.31 116.86 7.16 124.4 10.84 137.42 22.01 175.18 66.8 175.83 82.17 169.49 95.32 167.51 113.69 176.82 124.82 180.64 135.73 180.38 199.54 178.91 205.77 160.9 206.24 141.39 239.5 135.61 220.48 129.86 216.25 87.65 216 81.18 217.17 78.09 231.95 71.69 244.62 40.6 205.97 35.89 206.5 10.76 202.57 26.71 195.73 10.76 188.69 28.39 184.45 36.16 187.74 42.58 188.9"/></g></g></svg>