<svg xmlns="http://www.w3.org/2000/svg" viewBox="0 0 271.67 259.79"><defs><style>.cls-1{opacity:0.51;}.cls-2{fill:none;stroke:#b55cff;stroke-miterlimit:10;stroke-width:4px;}</style></defs><title>ae-004</title><g id="Слой_2" data-name="Слой 2"><g id="Слой_1-2" data-name="Слой 1"><g class="cls-1"><polyline class="cls-2" points="256.9 135.65 227.53 105.48 175.9 123.23 161.35 106.61 127.58 82.26 118.91 80.58 107.48 65 83.17 65 65.24 59.76 46.75 59.76 33.83 78.55 24.07 89.66 24.07 106.38 17.77 129.27 28.3 152 26.61 215.67 32.39 230.07 20.27 252.03 20.27 219.95 3.58 157.92 8.35 92.14 2.1 71.06 13.61 36.71 83.44 34.12 155.5 39.47 172.21 58.06 180.15 77.71 227.53 105.48 215.76 85.59 207.88 61.11 177.48 38.84 166.6 19.54 121.68 12.06 99.75 13.16 53.52 19.37 98.41 2.09 118.91 6.8 156.92 5.23 171.11 8.35 181.53 23.14 223.93 37.55 239.17 68.87 251.46 94.53 260.14 106.55 256.9 135.65 269.64 152.33 265.43 245.38 130.46 247.77 127.5 157.92 111.03 133.55 86.21 138.97 78.18 156.55 65.16 166.81 68.48 197.99 79.99 216.91 103.83 221.32 110.88 186.35 85.15 170.94 116.97 178.32 122.47 226.53 110.45 237.96 92.41 237.06 61.35 234.09 48.96 200.21 50.94 162.8 44.93 143.07 54.41 94.91 76.96 80.99 118.91 80.58"/><polyline class="cls-2" points="175.9 123.23 162.84 154.78 180.72 174.12 211.28 183.47 243.71 175.37 252.76 157.92 239.2 171.48 209.72 167.88 200.05 149.17"/><line class="cls-2" x1="127.5" y1="157.92" x2="175.89" y2="123.23"/></g></g></g></svg>