<svg xmlns="http://www.w3.org/2000/svg" viewBox="0 0 228.74 232.79"><defs><style>.cls-1{fill:none;stroke:#8dffc4;stroke-miterlimit:10;stroke-width:5px;opacity:0.39;}</style></defs><title>ae-009</title><g id="Слой_2" data-name="Слой 2"><g id="Слой_1-2" data-name="Слой 1"><polygon class="cls-1" points="212.27 218.19 223.56 218.03 191.36 178.33 181.66 173.87 142.28 174.38 137.3 166.34 137.23 152.27 155.3 145.77 175.57 145.76 198.97 134.3 171.23 134.5 156.27 129.46 168.42 118.26 155.66 108.66 156.53 96.03 168.54 87.22 158.73 81.54 170.29 75.43 191.11 71.35 170.38 63.93 134.81 62.87 139.57 52.87 174.15 52.05 211.15 14.43 195.01 14.36 173.28 7.62 134.86 2.54 113.56 7.92 107.28 17.56 93.31 48.59 77.17 42 55.41 37.58 19.77 48.08 2.55 100.98 12.13 175.13 52.83 205.63 73.63 197.53 81.28 199.28 94.72 210.9 108.44 224.64 165.7 230.26 212.27 218.19"/></g></g></svg>