<svg xmlns="http://www.w3.org/2000/svg" viewBox="0 0 230.51 233.69"><defs><style>.cls-1{fill:none;stroke:#15ffe3;stroke-miterlimit:10;stroke-width:11px;opacity:0.5;}</style></defs><title>ae-013</title><g id="Слой_2" data-name="Слой 2"><g id="Слой_1-2" data-name="Слой 1"><polygon class="cls-1" points="120.86 55.36 120.15 35.28 134.43 35.74 138.92 12.47 104.27 7.38 105.05 8.43 106.6 58.08 107.09 59.86 90.31 60.18 88.21 56.77 82.39 33.63 51.16 30.43 40.42 35.95 11.31 135 78.49 68.32 82.71 87.56 81.35 128.47 110.34 147.72 109.48 156.68 68.51 167.35 52.91 164.93 51.33 204.83 56.81 192.31 75.81 179.69 77.98 208.68 104.52 175.82 133.83 179.19 159.81 205.68 159.94 167.39 135.15 166.51 128.66 164.19 129.43 146.85 156.51 143.58 153.09 90.93 184.08 93.28 184.61 90.91 196.92 150.68 207.78 165.71 209.29 173.27 210.61 164.98 215.36 156.41 224.78 40.71 216.66 34.62 184.93 37.13 184.92 58.36 123.81 58.21 120.86 55.36"/></g></g></svg>