<svg xmlns="http://www.w3.org/2000/svg" xmlns:xlink="http://www.w3.org/1999/xlink" viewBox="0 0 271.15 257.53"><defs><style>.cls-1{isolation:isolate;}.cls-2{opacity:0.66;mix-blend-mode:multiply;fill:url(#Безымянный_градиент_90);}.cls-3{fill:none;stroke:#aaffb8;stroke-miterlimit:10;stroke-width:0.5px;opacity:0.16;}.cls-4{fill:#aaffb8;opacity:0.23;}</style><radialGradient id="Безымянный_градиент_90" cx="151.49" cy="78.46" r="34.49" gradientUnits="userSpaceOnUse"><stop offset="0" stop-color="#fff"/><stop offset="0.12" stop-color="#fff9b0"/><stop offset="0.36" stop-color="#006a42"/><stop offset="1" stop-color="#00002a"/></radialGradient></defs><title>ae-1_1</title><g class="cls-1"><g id="Слой_2" data-name="Слой 2"><g id="Слой_1-2" data-name="Слой 1"><polygon class="cls-2" points="189.77 57.32 195.45 99.6 107.54 96.2 189.77 57.32"/><polygon class="cls-3" points="182.31 186 171.58 160.38 231.95 160.1 230.77 141.99 270.77 141.99 226.14 37.85 164.47 11.1 75.37 4.2 4.2 45.87 0.54 140.54 25.87 251.54 228.35 257.27 226.32 191.91 182.31 186"/><polygon class="cls-3" points="164.2 40.87 225.87 80.54 173.2 113.54 107.54 96.2 128.87 56.22 164.2 40.87"/><rect class="cls-4" x="1.23" y="42.9" width="5.94" height="5.94" transform="translate(33.67 10.46) rotate(45)"/><rect class="cls-4" x="72.4" y="1.23" width="5.94" height="5.94" transform="translate(25.05 -52.06) rotate(45)"/><rect class="cls-4" x="54.4" y="190.96" width="5.94" height="5.94" transform="translate(153.93 16.23) rotate(45)"/><rect class="cls-4" x="104.56" y="93.23" width="5.94" height="5.94" transform="translate(99.52 -47.86) rotate(45)"/><rect class="cls-4" x="165.43" y="223.08" width="5.94" height="5.94" transform="translate(209.17 -52.87) rotate(45)"/><rect class="cls-4" x="208.86" y="123.56" width="5.94" height="5.94" transform="translate(151.52 -112.73) rotate(45)"/><rect class="cls-4" x="161.23" y="37.9" width="5.94" height="5.94" transform="translate(76.99 -104.14) rotate(45)"/><rect class="cls-4" x="222.9" y="77.56" width="5.94" height="5.94" transform="translate(123.1 -136.13) rotate(45)"/><rect class="cls-4" x="22.9" y="248.56" width="5.94" height="5.94" transform="translate(185.44 55.38) rotate(45)"/></g></g></g></svg>