<svg xmlns="http://www.w3.org/2000/svg" viewBox="0 0 240.34 213.93"><defs><style>.cls-1{fill:none;stroke:#404fbc;stroke-miterlimit:10;stroke-width:5px;opacity:0.38;}</style></defs><title>bg-011</title><g id="Слой_2" data-name="Слой 2"><g id="Слой_1-2" data-name="Слой 1"><polyline class="cls-1" points="50.47 176.18 62.49 209.38 68.24 203.61 70.86 208.11 76.05 203.3 81.17 206.09 85.21 181.51 128.81 177.48 136.94 191.78 207.18 198.87 207.25 194.47 213.47 195.65 212.97 189.82 219.46 189.71 209.84 177.53 237.82 170.76 237.12 62.15 110.81 2.85 27.22 55.84 19.45 89.19 2.53 91.28 3.64 167.94 87.07 170.06 91.12 98.83 203.83 93.87 204.14 99.31 152.64 101.65 159.5 103.9 149.55 109.11 159.17 113.8 150.21 117.52 158.48 117.83 156.96 121.87 210.81 121.18"/></g></g></svg>