<svg xmlns="http://www.w3.org/2000/svg" viewBox="0 0 194.08 240.29"><defs><style>.cls-1{opacity:0.2;}.cls-2{fill:none;stroke:#9fb500;stroke-miterlimit:10;}</style></defs><title>bg-bot-007</title><g id="Слой_2" data-name="Слой 2"><g id="Слой_1-2" data-name="Слой 1"><g class="cls-1"><polygon class="cls-2" points="45.1 1.79 20.54 19.18 71.93 19.18 82.53 1.79 45.1 1.79"/><polygon class="cls-2" points="20.54 116.46 70.27 116.46 71.93 19.18 20.54 19.18 20.54 116.46"/><polygon class="cls-2" points="120.6 19.18 190.27 19.18 163.73 1.79 125.27 1.79 120.6 19.18"/><polygon class="cls-2" points="120.6 116.46 192.34 116.46 190.27 19.18 120.6 19.18 120.6 116.46"/><polygon class="cls-2" points="163.73 1.79 168.13 91.76 192.34 116.46 190.27 19.18 163.73 1.79"/><polygon class="cls-2" points="82.53 1.79 82.27 100.46 70.27 116.46 71.93 19.18 82.53 1.79"/><polygon class="cls-2" points="144.27 239.79 193.27 239.79 175.17 203.96 166.51 165.4 138.84 165.4 144.27 193.12 144.27 239.79"/><polyline class="cls-2" points="166.51 165.4 186.6 193.79 144.27 193.12"/><line class="cls-2" x1="193.27" y1="239.79" x2="186.6" y2="193.79"/><polygon class="cls-2" points="22.49 146.39 34.44 110.96 77.73 69.37 117.27 70.17 97.74 110.67 88.17 146.68 22.49 146.39"/><polyline class="cls-2" points="22.49 146.39 56.93 168.12 117.27 168.12 88.17 146.68 156.47 108.03 147.39 82.21 132.59 63.68 117.27 70.17 77.73 69.37 106.83 64.31 132.59 63.68"/><line class="cls-2" x1="97.74" y1="110.67" x2="34.44" y2="110.96"/><polygon class="cls-2" points="20.54 191.12 20.54 239.79 69.27 239.79 65.6 191.12 20.54 191.12"/><polygon class="cls-2" points="56.93 168.12 20.54 191.12 65.6 191.12 82.93 168.12 56.93 168.12"/><polyline class="cls-2" points="69.27 239.79 86.1 205.79 82.93 168.12"/><polygon class="cls-2" points="82.43 168.12 77.68 182.35 78.16 208.79 85.36 216 105.35 216 101.92 206.03 101.45 183.78 106.54 168.12 82.43 168.12"/><polyline class="cls-2" points="117.27 168.12 146.35 147.37 156.47 108.03"/><polyline class="cls-2" points="105.35 216 123.27 184.28 121.67 163.86"/><line class="cls-2" x1="97.74" y1="110.67" x2="147.39" y2="82.21"/><rect class="cls-2" x="124.69" y="26.69" width="10.25" height="10.25" transform="translate(60.52 -82.47) rotate(45)"/><rect class="cls-2" x="148.17" y="26.69" width="10.25" height="10.25" transform="translate(67.39 -99.08) rotate(45)"/><rect class="cls-2" x="172.91" y="26.69" width="10.25" height="10.25" transform="translate(74.64 -116.57) rotate(45)"/><rect class="cls-2" x="124.69" y="50.77" width="10.25" height="10.25" transform="translate(77.55 -75.42) rotate(45)"/><rect class="cls-2" x="148.17" y="50.77" width="10.25" height="10.25" transform="translate(84.43 -92.03) rotate(45)"/><rect class="cls-2" x="172.91" y="50.77" width="10.25" height="10.25" transform="translate(91.67 -109.52) rotate(45)"/><rect class="cls-2" x="124.69" y="74.85" width="10.25" height="10.25" transform="translate(94.58 -68.37) rotate(45)"/><rect class="cls-2" x="148.17" y="74.85" width="10.25" height="10.25" transform="translate(101.46 -84.97) rotate(45)"/><rect class="cls-2" x="172.91" y="74.85" width="10.25" height="10.25" transform="translate(108.7 -102.46) rotate(45)"/><rect class="cls-2" x="124.69" y="98.94" width="10.25" height="10.25" transform="translate(111.61 -61.31) rotate(45)"/><rect class="cls-2" x="148.17" y="98.94" width="10.25" height="10.25" transform="translate(118.49 -77.92) rotate(45)"/><rect class="cls-2" x="172.91" y="98.94" width="10.25" height="10.25" transform="translate(125.73 -95.41) rotate(45)"/><polygon class="cls-2" points="28.97 28.25 35.52 29.33 37 36.14 2.64 67.82 0.71 66.53 28.97 28.25"/><polygon class="cls-2" points="53.75 28.25 60.3 29.33 61.78 36.14 27.42 67.82 25.49 66.53 53.75 28.25"/><polygon class="cls-2" points="28.97 77.46 35.52 78.55 37 85.35 2.64 117.03 0.71 115.74 28.97 77.46"/><polygon class="cls-2" points="53.75 77.46 60.3 78.55 61.78 85.35 27.42 117.03 25.49 115.74 53.75 77.46"/></g></g></g></svg>