<svg xmlns="http://www.w3.org/2000/svg" viewBox="0 0 139.35 139.35"><title>brdРесурс 33</title><g id="Слой_2" data-name="Слой 2"><g id="Слой_1-2" data-name="Слой 1"><rect width="17.42" height="17.42"/><rect x="34.84" width="17.42" height="17.42"/><rect x="69.68" width="17.42" height="17.42"/><rect x="104.52" width="17.42" height="17.42"/><rect x="17.42" y="17.42" width="17.42" height="17.42"/><rect x="52.26" y="17.42" width="17.42" height="17.42"/><rect x="87.1" y="17.42" width="17.42" height="17.42"/><rect x="121.94" y="17.42" width="17.42" height="17.42"/><rect y="34.84" width="17.42" height="17.42"/><rect x="34.84" y="34.84" width="17.42" height="17.42"/><rect x="69.68" y="34.84" width="17.42" height="17.42"/><rect x="104.52" y="34.84" width="17.42" height="17.42"/><rect x="17.42" y="52.26" width="17.42" height="17.42"/><rect x="52.26" y="52.26" width="17.42" height="17.42"/><rect x="87.1" y="52.26" width="17.42" height="17.42"/><rect x="121.94" y="52.26" width="17.42" height="17.42"/><rect y="69.68" width="17.42" height="17.42"/><rect x="34.84" y="69.68" width="17.42" height="17.42"/><rect x="69.68" y="69.68" width="17.42" height="17.42"/><rect x="104.52" y="69.68" width="17.42" height="17.42"/><rect x="17.42" y="87.1" width="17.42" height="17.42"/><rect x="52.26" y="87.1" width="17.42" height="17.42"/><rect x="87.1" y="87.1" width="17.42" height="17.42"/><rect x="121.94" y="87.1" width="17.42" height="17.42"/><rect y="104.52" width="17.42" height="17.42"/><rect x="34.84" y="104.52" width="17.42" height="17.42"/><rect x="69.68" y="104.52" width="17.42" height="17.42"/><rect x="104.52" y="104.52" width="17.42" height="17.42"/><rect x="17.42" y="121.94" width="17.42" height="17.42"/><rect x="52.26" y="121.94" width="17.42" height="17.42"/><rect x="87.1" y="121.94" width="17.42" height="17.42"/><rect x="121.94" y="121.94" width="17.42" height="17.42"/></g></g></svg>