<svg xmlns="http://www.w3.org/2000/svg" viewBox="0 0 314 293.5"><defs><style>.cls-1{isolation:isolate;}.cls-2{fill:#7d2aff;}.cls-2,.cls-3,.cls-4,.cls-5,.cls-6,.cls-7{opacity:0.46;}.cls-2,.cls-3,.cls-4{mix-blend-mode:lighten;}.cls-3{fill:#bea2ff;}.cls-4{fill:#7c009b;}.cls-5{fill:#4b007f;}.cls-5,.cls-6,.cls-7{mix-blend-mode:multiply;}.cls-6{fill:#3700b8;}.cls-7{fill:#fff45c;}</style></defs><title>cherry-0</title><g class="cls-1"><g id="Слой_2" data-name="Слой 2"><g id="Слой_1-2" data-name="Слой 1"><polygon class="cls-2" points="145 90.5 58.5 156.5 78.5 274.5 168 293.5 277 254 256.5 153 145 90.5"/><polygon class="cls-3" points="58.5 156.5 0 130.5 14.5 11.5 160.28 0 145 90.5 58.5 156.5"/><polygon class="cls-4" points="256.5 153 305 133 314 8.5 160.28 0 145 90.5 256.5 153"/><polygon class="cls-5" points="125.42 29.19 120.29 88.57 71.17 119 27.92 119 40.02 29.19 125.42 29.19"/><polygon class="cls-6" points="171.61 87.84 244.56 119 274.25 119 290.01 32.12 180.04 32.12 171.61 87.84"/><polygon class="cls-7" points="86.57 150.15 91.33 264.89 220 264.89 230.81 144.29 86.57 150.15"/></g></g></g></svg>