<svg xmlns="http://www.w3.org/2000/svg" viewBox="0 0 301.24 241.17"><defs><style>.cls-1{fill:none;stroke:#db8100;stroke-miterlimit:10;stroke-width:8px;opacity:0.44;}</style></defs><title>cls-018</title><g id="Слой_2" data-name="Слой 2"><g id="Слой_1-2" data-name="Слой 1"><polygon class="cls-1" points="211.07 164.67 214.1 164.14 222.32 165.48 235.38 167.53 245.08 169.52 289.65 170.23 280.49 128.62 261.09 110.52 244.63 124.32 213.68 128.86 165.1 109.04 173.25 76.82 211.33 79.86 237.81 78.59 259.11 88.7 263.27 62.91 292.83 34.74 257.18 28.06 241.2 26.87 224.09 35.09 208.16 34.16 195.1 23.45 193.65 5.58 170.63 14.12 161.91 35.74 146.97 47.65 113.21 51.19 87.48 56.13 78.8 70.55 74.08 88.44 52.94 100.76 44.84 98.53 38.24 73.41 4.07 80.27 4.23 87.24 6.96 93 8.5 99.39 31.37 105.85 41.27 112.87 39.6 128.62 25.42 131.86 22.21 152.36 12.72 170.88 10.12 182.21 22.97 225.82 26.18 230.04 31.17 222.13 27.71 210.92 33.38 193.22 27.95 175.55 42.03 178.53 54.82 170.66 66.77 160.5 71.24 150.58 75.84 150.51 76.31 158.35 74.15 167.35 70.19 176.5 67.46 181.26 48.81 186.7 47.21 224.35 50.17 233.19 60.95 235.86 57.96 214.47 63.98 204.24 62.73 194.18 75 194.3 88.01 192.77 99.03 177.62 97.92 159.12 114.55 153.91 123.18 144.86 157.7 147.57 179.05 171.28 179.93 183.61 186.77 192.29 198.53 203.52 199.04 221.78 213.13 227.93 221.54 210.78 219.66 202.53 219.24 193.31 207.45 171.07 211.07 164.67 211.07 164.67"/></g></g></svg>