<svg xmlns="http://www.w3.org/2000/svg" viewBox="0 0 210.57 178.37"><defs><style>.cls-1{opacity:0.56;}.cls-2{fill:none;stroke:#ffe238;stroke-miterlimit:10;stroke-width:3px;}</style></defs><title>cls-003</title><g id="Слой_2" data-name="Слой 2"><g id="Слой_1-2" data-name="Слой 1"><g class="cls-1"><polygon class="cls-2" points="104.66 20.09 102.44 22.84 92.66 11.28 80.3 15.78 80.58 26.78 92.33 32.53 102.44 29.75 101.45 37.42 89.81 44.19 66 33.03 57.7 37.03 51.93 44.84 42 50.78 41.69 56.34 71.19 69.56 113.5 59.03 139.43 67.24 155.96 57.56 147.44 46.58 135.72 41.53 124.14 41.57 117.64 32.13 136.93 27.51 136.87 21.48 118.01 14.24 127.58 8.28 195.13 23.44 198.94 27.33 208.96 85.66 163.19 130.05 160.75 151.05 148.26 173.06 139.94 165.91 116.85 158.53 73.28 176.28 65.06 128.76 1.56 91.76 6.42 24.09 47.49 4.87 98.24 1.53 108.23 7.98 104.66 20.09 104.66 20.09"/><polyline class="cls-2" points="80.94 80.03 85.43 83.79 80.69 86.28"/><polyline class="cls-2" points="131.94 77.28 127.22 80.78 132.94 84.53"/><polyline class="cls-2" points="117.94 87.03 112.45 89.79 101.69 87.28"/></g></g></g></svg>