<svg xmlns="http://www.w3.org/2000/svg" viewBox="0 0 162.68 198.69"><defs><style>.cls-1{opacity:0.5;}.cls-2{fill:none;stroke:#1fffd4;stroke-miterlimit:10;stroke-width:2.07px;}</style></defs><title>cls-007</title><g id="Слой_2" data-name="Слой 2"><g id="Слой_1-2" data-name="Слой 1"><g class="cls-1"><polygon class="cls-2" points="2.18 3.8 8.74 19.11 42.4 15.79 36.69 1.09 2.18 3.8"/><polyline class="cls-2" points="42.4 15.79 42.4 195.24 7.31 197.61 1.03 183.63 2.18 3.8"/><polygon class="cls-2" points="49.24 45.66 83.19 43.29 86.61 68.65 52.38 70.79 49.24 45.66"/><polyline class="cls-2" points="42.4 156.13 67.93 154.94 86.61 68.65"/><line class="cls-2" x1="52.38" y1="70.79" x2="42.4" y2="120.57"/><line class="cls-2" x1="49.24" y1="45.66" x2="42.4" y2="75.05"/><polygon class="cls-2" points="80.62 15.79 84.33 33.8 119.41 32.62 113.71 13.65 80.62 15.79"/><polyline class="cls-2" points="119.41 32.62 106.86 184.34 72.35 185.76 67.93 164.9 67.93 154.94"/><line class="cls-2" x1="80.62" y1="15.79" x2="78.28" y2="43.63"/><polyline class="cls-2" points="112.36 117.95 125.97 191.45 159.56 189.65 161.63 172.25 132.54 7.49 97.45 10.1 98.24 14.65"/><polyline class="cls-2" points="125.97 191.45 128.63 174.38 161.63 172.25"/><line class="cls-2" x1="113.48" y1="104.4" x2="128.63" y2="174.38"/><line class="cls-2" x1="8.74" y1="19.11" x2="7.31" y2="197.61"/><line class="cls-2" x1="45.45" y1="104.43" x2="79.63" y2="102.22"/><line class="cls-2" x1="48.56" y1="89.59" x2="82.74" y2="87.38"/><line class="cls-2" x1="84.33" y1="33.81" x2="83.19" y2="43.29"/><line class="cls-2" x1="114.99" y1="81.9" x2="83.51" y2="82.96"/><line class="cls-2" x1="117.34" y1="59.76" x2="85.56" y2="60.84"/></g></g></g></svg>