<svg xmlns="http://www.w3.org/2000/svg" viewBox="0 0 186.73 186.98"><defs><style>.cls-1{fill:none;stroke:#0057f4;stroke-miterlimit:10;}</style></defs><title>Cont</title><g id="Слой_2" data-name="Слой 2"><g id="Слой_1-2" data-name="Слой 1"><polygon class="cls-1" points="65.37 0.65 185.49 9.32 185.49 163.83 30.99 163.83 65.37 0.65"/><polygon class="cls-1" points="30.99 163.83 185.49 163.83 163.49 185.82 8.99 185.82 30.99 163.83"/><polygon class="cls-1" points="1.76 14.33 8.99 185.82 30.99 163.83 65.37 0.65 1.76 14.33"/><polygon class="cls-1" points="1.76 14.33 125.62 61.38 163.49 185.82 8.99 185.82 1.76 14.33"/><polygon class="cls-1" points="65.37 0.65 185.49 9.32 125.62 61.38 1.76 14.33 65.37 0.65"/><polygon class="cls-1" points="125.62 61.38 163.49 185.82 185.49 163.83 185.49 9.32 125.62 61.38"/></g></g></svg>