<svg xmlns="http://www.w3.org/2000/svg" xmlns:xlink="http://www.w3.org/1999/xlink" viewBox="0 0 176.5 92.32"><defs><style>.cls-1{isolation:isolate;}.cls-2{fill:url(#Безымянный_градиент_11);}.cls-3{fill:url(#Безымянный_градиент_10);}.cls-4{fill:url(#Безымянный_градиент_8);}.cls-5,.cls-7{mix-blend-mode:darken;}.cls-5{fill:url(#Безымянный_градиент_583);}.cls-6{mix-blend-mode:overlay;fill:url(#Безымянный_градиент_583-2);}.cls-7{fill:url(#Безымянный_градиент_6);}</style><linearGradient id="Безымянный_градиент_11" x1="86.48" y1="-12.93" x2="113.94" y2="90.5" gradientTransform="translate(198.5 70.32) rotate(-180)" gradientUnits="userSpaceOnUse"><stop offset="0" stop-color="#4539ff"/><stop offset="0.56" stop-color="#39e2ff"/><stop offset="1" stop-color="#261b64"/></linearGradient><linearGradient id="Безымянный_градиент_10" x1="88.25" y1="98.98" x2="88.25" y2="51.38" gradientUnits="userSpaceOnUse"><stop offset="0" stop-color="#39e2ff"/><stop offset="0.71" stop-color="#4539ff"/><stop offset="1" stop-color="#261b64"/></linearGradient><linearGradient id="Безымянный_градиент_8" x1="-72.66" y1="46.16" x2="56.47" y2="46.16" gradientUnits="userSpaceOnUse"><stop offset="0.03" stop-color="#4539ff"/><stop offset="0.16" stop-color="#39e2ff"/><stop offset="0.34" stop-color="#fff"/><stop offset="0.63" stop-color="#261b64"/></linearGradient><linearGradient id="Безымянный_градиент_583" x1="-0.89" y1="73.68" x2="261.1" y2="18.27" gradientTransform="translate(154.5 114.31) rotate(-180)" gradientUnits="userSpaceOnUse"><stop offset="0" stop-color="#39e2ff"/><stop offset="0.34" stop-color="#fff"/><stop offset="0.63" stop-color="#261b64"/></linearGradient><linearGradient id="Безымянный_градиент_583-2" x1="88.25" y1="41.72" x2="88.25" y2="-49.9" gradientTransform="matrix(1, 0, 0, 1, 0, 0)" xlink:href="#Безымянный_градиент_583"/><linearGradient id="Безымянный_градиент_6" x1="198.45" y1="46.16" x2="156.07" y2="46.16" gradientUnits="userSpaceOnUse"><stop offset="0" stop-color="#4539ff"/><stop offset="0.42" stop-color="#261b64"/><stop offset="0.83" stop-color="#39e2ff"/></linearGradient></defs><title>half</title><g class="cls-1"><g id="Слой_2" data-name="Слой 2"><g id="Слой_1-2" data-name="Слой 1"><rect class="cls-2" x="22" width="154.5" height="70.32" transform="translate(198.5 70.32) rotate(180)"/><polygon class="cls-3" points="22 70.32 176.5 70.32 154.5 92.31 0 92.31 22 70.32"/><polygon class="cls-4" points="0 22 0 92.31 22 70.32 22 0 0 22"/><rect class="cls-5" y="22" width="154.5" height="70.32" transform="translate(154.5 114.31) rotate(180)"/><polygon class="cls-6" points="22 0 176.5 0 154.5 22 0 22 22 0"/><polygon class="cls-7" points="154.5 22 154.5 92.31 176.5 70.32 176.5 0 154.5 22"/></g></g></g></svg>