<svg xmlns="http://www.w3.org/2000/svg" xmlns:xlink="http://www.w3.org/1999/xlink" viewBox="0 0 176.5 176.5"><defs><style>.cls-1{isolation:isolate;}.cls-2{fill:url(#Безымянный_градиент_31);}.cls-3,.cls-4{mix-blend-mode:overlay;}.cls-3{fill:url(#Безымянный_градиент_33);}.cls-4{fill:url(#Безымянный_градиент_30);}.cls-5,.cls-6{mix-blend-mode:lighten;}.cls-5{fill:url(#Безымянный_градиент_57);}.cls-6{fill:url(#Безымянный_градиент_57-2);}</style><radialGradient id="Безымянный_градиент_31" cx="88.25" cy="88.25" r="88.25" gradientUnits="userSpaceOnUse"><stop offset="0" stop-color="#fff"/><stop offset="0.13" stop-color="#fbff00"/><stop offset="0.26" stop-color="#9e8100"/><stop offset="0.74"/><stop offset="0.86" stop-color="#322"/><stop offset="0.94" stop-color="#211b1b"/><stop offset="1" stop-color="#050503"/></radialGradient><linearGradient id="Безымянный_градиент_33" x1="6.16" y1="170.34" x2="171.64" y2="4.86" gradientUnits="userSpaceOnUse"><stop offset="0" stop-color="#ffd62a"/><stop offset="0.5" stop-color="#f0d3d3"/><stop offset="0.5" stop-color="#fff"/><stop offset="1" stop-color="#d4b2b2"/></linearGradient><linearGradient id="Безымянный_градиент_30" y1="99.25" x2="154.5" y2="99.25" gradientTransform="translate(154.5 198.5) rotate(-180)" gradientUnits="userSpaceOnUse"><stop offset="0" stop-color="#6a5b00"/><stop offset="1" stop-color="#2a2a00"/></linearGradient><linearGradient id="Безымянный_градиент_57" y1="11" x2="176.5" y2="11" gradientUnits="userSpaceOnUse"><stop offset="0" stop-color="#6b5d00"/><stop offset="1" stop-color="#0d0d00"/></linearGradient><linearGradient id="Безымянный_градиент_57-2" x1="154.5" y1="88.25" y2="88.25" xlink:href="#Безымянный_градиент_57"/></defs><title>ignition-1</title><g class="cls-1"><g id="Слой_2" data-name="Слой 2"><g id="Слой_1-2" data-name="Слой 1"><polygon class="cls-2" points="22 0 176.5 0 176.5 154.5 154.5 176.5 0 176.5 0 22 22 0"/><polygon class="cls-3" points="22 0 176.5 0 176.5 154.5 154.5 176.5 0 176.5 0 22 22 0"/><rect class="cls-4" y="22" width="154.5" height="154.5" transform="translate(154.5 198.5) rotate(180)"/><polygon class="cls-5" points="22 0 176.5 0 154.5 22 0 22 22 0"/><polygon class="cls-6" points="154.5 22 154.5 176.5 176.5 154.5 176.5 0 154.5 22"/></g></g></g></svg>