<svg xmlns="http://www.w3.org/2000/svg" xmlns:xlink="http://www.w3.org/1999/xlink" viewBox="0 0 176.5 176.5"><defs><style>.cls-1{isolation:isolate;}.cls-10,.cls-2,.cls-3,.cls-4,.cls-9{mix-blend-mode:screen;}.cls-2{fill:url(#Безымянный_градиент_620);}.cls-3,.cls-4{opacity:0.37;}.cls-3{fill:url(#Безымянный_градиент_394);}.cls-4{fill:url(#Безымянный_градиент_621);}.cls-5{fill:url(#Безымянный_градиент_67);}.cls-6,.cls-7{mix-blend-mode:lighten;}.cls-6{fill:url(#Безымянный_градиент_394-2);}.cls-7{fill:url(#Безымянный_градиент_394-3);}.cls-8{mix-blend-mode:overlay;fill:url(#Безымянный_градиент_388);}.cls-9{fill:url(#Безымянный_градиент_620-2);}.cls-10{fill:url(#Безымянный_градиент_620-3);}</style><linearGradient id="Безымянный_градиент_620" x1="94.31" y1="108.24" x2="84.64" y2="76.33" gradientUnits="userSpaceOnUse"><stop offset="0" stop-color="#121200"/><stop offset="1"/></linearGradient><linearGradient id="Безымянный_градиент_394" x1="86.5" y1="158.27" x2="76.77" y2="117.98" gradientUnits="userSpaceOnUse"><stop offset="0" stop-color="#2e2800"/><stop offset="1"/></linearGradient><linearGradient id="Безымянный_градиент_621" x1="-25.23" y1="69.07" x2="24.79" y2="95.55" gradientUnits="userSpaceOnUse"><stop offset="0.28" stop-color="#2e2800"/><stop offset="1"/></linearGradient><radialGradient id="Безымянный_градиент_67" cx="88.25" cy="88.25" r="88.25" gradientUnits="userSpaceOnUse"><stop offset="0.13" stop-color="#fff"/><stop offset="0.23" stop-color="#ff0"/><stop offset="0.56" stop-color="#592d00"/><stop offset="0.95" stop-color="#0a0707" stop-opacity="0"/></radialGradient><linearGradient id="Безымянный_градиент_394-2" x1="84.78" y1="-9.58" x2="92.36" y2="35.34" xlink:href="#Безымянный_градиент_394"/><linearGradient id="Безымянный_градиент_394-3" x1="137.61" y1="82.31" x2="205" y2="96.66" xlink:href="#Безымянный_градиент_394"/><linearGradient id="Безымянный_градиент_388" x1="6.16" y1="170.34" x2="171.64" y2="4.86" gradientUnits="userSpaceOnUse"><stop offset="0" stop-color="#ffd62a"/><stop offset="0.5" stop-color="#f0d3d3"/><stop offset="0.5" stop-color="#fff"/><stop offset="1" stop-color="#d4b2b2"/></linearGradient><linearGradient id="Безымянный_градиент_620-2" x1="89.99" y1="16.73" x2="87.21" y2="7.58" xlink:href="#Безымянный_градиент_620"/><linearGradient id="Безымянный_градиент_620-3" x1="156.46" y1="87.35" x2="169.6" y2="88.66" xlink:href="#Безымянный_градиент_620"/></defs><title>ignition-1_1</title><g class="cls-1"><g id="Слой_2" data-name="Слой 2"><g id="Слой_1-2" data-name="Слой 1"><polygon class="cls-2" points="22 0 176.5 0 176.5 154.5 154.5 176.5 0 176.5 0 22 22 0"/><polygon class="cls-3" points="22 154.5 176.5 154.5 154.5 176.5 0 176.5 22 154.5"/><polygon class="cls-4" points="0 22 0 176.5 22 154.5 22 0 0 22"/><circle class="cls-5" cx="88.25" cy="88.25" r="88.25"/><polygon class="cls-6" points="22 0 176.5 0 154.5 22 0 22 22 0"/><polygon class="cls-7" points="154.5 22 154.5 176.5 176.5 154.5 176.5 0 154.5 22"/><polygon class="cls-8" points="22 0 176.5 0 176.5 154.5 154.5 176.5 0 176.5 0 22 22 0"/><polygon class="cls-9" points="22 0 176.5 0 154.5 22 0 22 22 0"/><polygon class="cls-10" points="154.5 22 154.5 176.5 176.5 154.5 176.5 0 154.5 22"/></g></g></g></svg>