<svg xmlns="http://www.w3.org/2000/svg" xmlns:xlink="http://www.w3.org/1999/xlink" viewBox="0 0 176.5 176.5"><defs><style>.cls-1{isolation:isolate;}.cls-2{fill:url(#Безымянный_градиент_498);}.cls-3{mix-blend-mode:color-dodge;fill:url(#Безымянный_градиент_473);}.cls-10,.cls-11,.cls-4,.cls-9{mix-blend-mode:overlay;}.cls-4{fill:url(#Безымянный_градиент_2);}.cls-5{fill:url(#Безымянный_градиент_2-2);}.cls-6,.cls-7,.cls-8{mix-blend-mode:multiply;}.cls-6{fill:url(#Безымянный_градиент_249);}.cls-7{fill:url(#Безымянный_градиент_249-2);}.cls-8{fill:url(#Безымянный_градиент_249-3);}.cls-9{fill:url(#Безымянный_градиент_505);}.cls-10{fill:url(#Безымянный_градиент_505-2);}.cls-11{fill:url(#Безымянный_градиент_505-3);}</style><radialGradient id="Безымянный_градиент_498" cx="84.96" cy="86.06" fx="118.02811701579014" fy="79.30552728227892" r="79.03" gradientUnits="userSpaceOnUse"><stop offset="0.17"/><stop offset="0.47" stop-color="#732000"/><stop offset="0.54" stop-color="#b37d0a"/><stop offset="0.61" stop-color="#ffec15"/><stop offset="0.71" stop-color="#732000"/><stop offset="0.85" stop-color="#e90020" stop-opacity="0.5"/><stop offset="1" stop-color="#481700" stop-opacity="0.16"/></radialGradient><radialGradient id="Безымянный_градиент_473" cx="94.4" cy="79.82" fx="70.44595016809932" fy="89.20369178511552" r="78.25" gradientUnits="userSpaceOnUse"><stop offset="0.08" stop-color="#d7a112"/><stop offset="0.1" stop-color="#d8a414"/><stop offset="0.11" stop-color="#dcac1c"/><stop offset="0.12" stop-color="#e2ba28"/><stop offset="0.13" stop-color="#ebce3a"/><stop offset="0.14" stop-color="#f7e850"/><stop offset="0.19" stop-color="#f1de50"/><stop offset="0.27" stop-color="#dfc44f"/><stop offset="0.36" stop-color="#c3994d"/><stop offset="0.48" stop-color="#9c5e4b"/><stop offset="0.61" stop-color="#6b1349"/><stop offset="0.64" stop-color="#5f0148"/><stop offset="0.68" stop-color="#550141"/><stop offset="0.73" stop-color="#3b012d"/><stop offset="0.81" stop-color="#11010d"/><stop offset="0.83" stop-color="#000100"/></radialGradient><radialGradient id="Безымянный_градиент_2" cx="88.25" cy="88.25" r="88.25" gradientUnits="userSpaceOnUse"><stop offset="0" stop-color="#fff"/><stop offset="1"/></radialGradient><radialGradient id="Безымянный_градиент_2-2" cx="77.25" cy="99.25" r="77.25" gradientTransform="translate(154.5 198.5) rotate(-180)" xlink:href="#Безымянный_градиент_2"/><linearGradient id="Безымянный_градиент_249" x1="-9.1" y1="117.51" x2="280.42" y2="56.28" gradientTransform="translate(154.5 198.5) rotate(-180)" gradientUnits="userSpaceOnUse"><stop offset="0" stop-color="#00f4ff"/><stop offset="0.34" stop-color="#fff"/><stop offset="0.63" stop-color="#1b1464"/></linearGradient><linearGradient id="Безымянный_градиент_249-2" x1="88.25" y1="41.72" x2="88.25" y2="-49.9" gradientTransform="matrix(1, 0, 0, 1, 0, 0)" xlink:href="#Безымянный_градиент_249"/><linearGradient id="Безымянный_градиент_249-3" x1="131.97" y1="88.25" x2="223.8" y2="88.25" gradientTransform="matrix(1, 0, 0, 1, 0, 0)" xlink:href="#Безымянный_градиент_249"/><linearGradient id="Безымянный_градиент_505" x1="88.25" y1="41.72" x2="88.25" y2="-49.9" gradientUnits="userSpaceOnUse"><stop offset="0"/><stop offset="1" stop-color="#ff2a2a"/></linearGradient><linearGradient id="Безымянный_градиент_505-2" x1="131.97" y1="88.25" x2="223.8" y2="88.25" xlink:href="#Безымянный_градиент_505"/><linearGradient id="Безымянный_градиент_505-3" x1="-9.1" y1="117.51" x2="280.42" y2="56.28" gradientTransform="translate(154.5 198.5) rotate(-180)" xlink:href="#Безымянный_градиент_505"/></defs><title>mercury_blood</title><g class="cls-1"><g id="Слой_2" data-name="Слой 2"><g id="Слой_1-2" data-name="Слой 1"><polygon class="cls-2" points="0 22 22 0 176.5 0 176.5 154.5 154.5 176.5 0 176.5 0 22"/><polygon class="cls-3" points="0 22 22 0 176.5 0 176.5 154.5 154.5 176.5 0 176.5 0 22"/><polygon class="cls-4" points="22 0 176.5 0 176.5 154.5 154.5 176.5 0 176.5 0 22 22 0"/><rect class="cls-5" y="22" width="154.5" height="154.5" transform="translate(154.5 198.5) rotate(180)"/><rect class="cls-6" y="22" width="154.5" height="154.5" transform="translate(154.5 198.5) rotate(180)"/><polygon class="cls-7" points="22 0 176.5 0 154.5 22 0 22 22 0"/><polygon class="cls-8" points="154.5 22 154.5 176.5 176.5 154.5 176.5 0 154.5 22"/><polygon class="cls-9" points="22 0 176.5 0 154.5 22 0 22 22 0"/><polygon class="cls-10" points="154.5 22 154.5 176.5 176.5 154.5 176.5 0 154.5 22"/><rect class="cls-11" y="22" width="154.5" height="154.5" transform="translate(154.5 198.5) rotate(180)"/></g></g></g></svg>