<svg xmlns="http://www.w3.org/2000/svg" xmlns:xlink="http://www.w3.org/1999/xlink" viewBox="0 0 176.5 176.5"><defs><style>.cls-1{isolation:isolate;}.cls-2{fill:url(#Безымянный_градиент_76);}.cls-3,.cls-4,.cls-7,.cls-8{mix-blend-mode:overlay;}.cls-3{fill:url(#Безымянный_градиент_78);}.cls-4{fill:url(#Безымянный_градиент_78-2);}.cls-5{fill:url(#Безымянный_градиент_28);}.cls-6{mix-blend-mode:multiply;fill:url(#Безымянный_градиент_142);}.cls-7{fill:url(#Безымянный_градиент_133);}.cls-8{fill:url(#Безымянный_градиент_133-2);}</style><linearGradient id="Безымянный_градиент_76" y1="88.25" x2="176.5" y2="88.25" gradientUnits="userSpaceOnUse"><stop offset="0.62" stop-color="#1c1916"/><stop offset="1" stop-color="#171209"/></linearGradient><linearGradient id="Безымянный_градиент_78" x1="88.25" y1="151" x2="88.25" y2="185.84" gradientUnits="userSpaceOnUse"><stop offset="0" stop-color="#1d1d1b"/><stop offset="1" stop-color="#fff"/></linearGradient><linearGradient id="Безымянный_градиент_78-2" x1="11" y1="168.3" x2="11" y2="12.97" xlink:href="#Безымянный_градиент_78"/><radialGradient id="Безымянный_градиент_28" cx="88.25" cy="88.25" r="88.25" gradientUnits="userSpaceOnUse"><stop offset="0" stop-color="#fff"/><stop offset="0.7" stop-color="#5c5852"/><stop offset="1" stop-color="#171209"/></radialGradient><linearGradient id="Безымянный_градиент_142" x1="-13.75" y1="108.05" x2="189.75" y2="68.55" gradientUnits="userSpaceOnUse"><stop offset="0" stop-color="#008c8c"/><stop offset="0.5" stop-color="#fff"/><stop offset="1" stop-color="#ffb0dc"/></linearGradient><linearGradient id="Безымянный_градиент_133" x1="88.25" y1="26.86" x2="88.25" y2="-3.26" gradientUnits="userSpaceOnUse"><stop offset="0" stop-color="#fff"/><stop offset="1" stop-color="#632246"/></linearGradient><linearGradient id="Безымянный_градиент_133-2" x1="165.5" y1="215.49" x2="165.5" y2="-26.18" xlink:href="#Безымянный_градиент_133"/></defs><title>mercury_gas</title><g class="cls-1"><g id="Слой_2" data-name="Слой 2"><g id="Слой_1-2" data-name="Слой 1"><polygon class="cls-2" points="22 0 176.5 0 176.5 154.5 154.5 176.5 0 176.5 0 22 22 0"/><polygon class="cls-3" points="22 154.5 176.5 154.5 154.5 176.5 0 176.5 22 154.5"/><polygon class="cls-4" points="0 22 0 176.5 22 154.5 22 0 0 22"/><circle class="cls-5" cx="88.25" cy="88.25" r="88.25"/><polygon class="cls-6" points="22 0 176.5 0 176.5 154.5 154.5 176.5 0 176.5 0 22 22 0"/><polygon class="cls-7" points="22 0 176.5 0 154.5 22 0 22 22 0"/><polygon class="cls-8" points="154.5 22 154.5 176.5 176.5 154.5 176.5 0 154.5 22"/></g></g></g></svg>