<svg xmlns="http://www.w3.org/2000/svg" xmlns:xlink="http://www.w3.org/1999/xlink" viewBox="0 0 176.5 176.5"><defs><style>.cls-1{isolation:isolate;}.cls-2{fill:url(#Безымянный_градиент_2);}.cls-3{fill:url(#Безымянный_градиент_2-2);}.cls-4,.cls-5,.cls-6{mix-blend-mode:multiply;}.cls-4{fill:url(#Безымянный_градиент_249);}.cls-5{fill:url(#Безымянный_градиент_249-2);}.cls-6{fill:url(#Безымянный_градиент_249-3);}</style><radialGradient id="Безымянный_градиент_2" cx="99.25" cy="77.25" r="77.25" gradientTransform="translate(198.5 154.5) rotate(-180)" gradientUnits="userSpaceOnUse"><stop offset="0" stop-color="#fff"/><stop offset="1"/></radialGradient><radialGradient id="Безымянный_градиент_2-2" cx="88.25" cy="88.25" r="88.25" gradientTransform="matrix(1, 0, 0, 1, 0, 0)" xlink:href="#Безымянный_градиент_2"/><linearGradient id="Безымянный_градиент_249" x1="-9.1" y1="117.51" x2="280.42" y2="56.28" gradientTransform="translate(154.5 198.5) rotate(-180)" gradientUnits="userSpaceOnUse"><stop offset="0" stop-color="#00f4ff"/><stop offset="0.34" stop-color="#fff"/><stop offset="0.63" stop-color="#1b1464"/></linearGradient><linearGradient id="Безымянный_градиент_249-2" x1="88.25" y1="41.72" x2="88.25" y2="-49.9" gradientTransform="matrix(1, 0, 0, 1, 0, 0)" xlink:href="#Безымянный_градиент_249"/><linearGradient id="Безымянный_градиент_249-3" x1="131.97" y1="88.25" x2="223.8" y2="88.25" gradientTransform="matrix(1, 0, 0, 1, 0, 0)" xlink:href="#Безымянный_градиент_249"/></defs><title>mercury_gas_blue</title><g class="cls-1"><g id="Слой_2" data-name="Слой 2"><g id="Слой_1-2" data-name="Слой 1"><rect class="cls-2" x="22" width="154.5" height="154.5" transform="translate(198.5 154.5) rotate(180)"/><polygon class="cls-3" points="22 0 176.5 0 176.5 154.5 154.5 176.5 0 176.5 0 22 22 0"/><rect class="cls-4" y="22" width="154.5" height="154.5" transform="translate(154.5 198.5) rotate(180)"/><polygon class="cls-5" points="22 0 176.5 0 154.5 22 0 22 22 0"/><polygon class="cls-6" points="154.5 22 154.5 176.5 176.5 154.5 176.5 0 154.5 22"/></g></g></g></svg>