<svg xmlns="http://www.w3.org/2000/svg" viewBox="0 0 498.98 269.7"><defs><style>.cls-1{opacity:0.34;}.cls-2{fill:none;stroke:#0edb00;stroke-miterlimit:10;stroke-width:3px;}</style></defs><title>pok-0</title><g id="Слой_2" data-name="Слой 2"><g id="Слой_1-2" data-name="Слой 1"><g class="cls-1"><polygon class="cls-2" points="40.51 117.83 11.86 260.37 15.56 266.83 33.29 257.7 37.96 266.34 68.87 255.49 72.78 267.16 143.18 209.79 279.4 264.46 396.97 221.97 424.12 245.23 424.89 261.19 448.46 248.83 459.73 261.97 474.42 251.67 496.44 256.72 497.47 140.81 372.81 41.59 194.47 85.59 9.38 5.68 80.53 63.44 40.51 117.83"/><polyline class="cls-2" points="399.7 117.8 355.63 142.58 425.28 155.05"/><polyline class="cls-2" points="149.98 123.61 186.66 140.87 139.58 159.5"/><polyline class="cls-2" points="255.35 186.65 283.35 204.65 311.85 189.15"/></g></g></g></svg>