<svg xmlns="http://www.w3.org/2000/svg" xmlns:xlink="http://www.w3.org/1999/xlink" viewBox="0 0 176.5 176.5"><defs><style>.cls-1{isolation:isolate;}.cls-2,.cls-3,.cls-4,.cls-7{mix-blend-mode:lighten;}.cls-2{fill:url(#Безымянный_градиент_17);}.cls-3{fill:url(#Безымянный_градиент_18);}.cls-4{fill:url(#Безымянный_градиент_19);}.cls-5,.cls-6{mix-blend-mode:multiply;}.cls-5{fill:url(#Безымянный_градиент_17-2);}.cls-6{fill:url(#Безымянный_градиент_17-3);}.cls-7{fill:url(#Безымянный_градиент_20);}</style><linearGradient id="Безымянный_градиент_17" x1="99.25" y1="-2.11" x2="99.25" y2="190.75" gradientTransform="translate(198.5 154.5) rotate(-180)" gradientUnits="userSpaceOnUse"><stop offset="0" stop-color="#000039"/><stop offset="0.45" stop-color="#aebbc5"/><stop offset="1" stop-color="#1b1464"/></linearGradient><linearGradient id="Безымянный_градиент_18" x1="88.25" y1="190.74" x2="88.25" y2="142.32" gradientUnits="userSpaceOnUse"><stop offset="0" stop-color="#1b1464"/><stop offset="1" stop-color="#aebbc5"/></linearGradient><linearGradient id="Безымянный_градиент_19" x1="-5.53" y1="88.25" x2="31.21" y2="88.25" gradientUnits="userSpaceOnUse"><stop offset="0" stop-color="#aebbc5"/><stop offset="1" stop-color="#000039"/></linearGradient><linearGradient id="Безымянный_градиент_17-2" x1="15.39" y1="83.86" x2="150.12" y2="-50.87" gradientTransform="matrix(1, 0, 0, 1, 0, 0)" xlink:href="#Безымянный_градиент_17"/><linearGradient id="Безымянный_градиент_17-3" x1="138.27" y1="88.25" x2="191.15" y2="88.25" gradientTransform="matrix(1, 0, 0, 1, 0, 0)" xlink:href="#Безымянный_градиент_17"/><linearGradient id="Безымянный_градиент_20" x1="3.15" y1="99.25" x2="149.66" y2="99.25" gradientTransform="translate(154.5 198.5) rotate(-180)" gradientUnits="userSpaceOnUse"><stop offset="0" stop-color="#000039"/><stop offset="0.56" stop-color="#aebbc5"/><stop offset="1" stop-color="#1b1464"/></linearGradient></defs><title>Qb_1</title><g class="cls-1"><g id="Слой_2" data-name="Слой 2"><g id="Слой_1-2" data-name="Слой 1"><rect class="cls-2" x="22" width="154.5" height="154.5" transform="translate(198.5 154.5) rotate(180)"/><polygon class="cls-3" points="22 154.5 176.5 154.5 154.5 176.5 0 176.5 22 154.5"/><polygon class="cls-4" points="0 22 0 176.5 22 154.5 22 0 0 22"/><polygon class="cls-5" points="22 0 176.5 0 154.5 22 0 22 22 0"/><polygon class="cls-6" points="154.5 22 154.5 176.5 176.5 154.5 176.5 0 154.5 22"/><rect class="cls-7" y="22" width="154.5" height="154.5" transform="translate(154.5 198.5) rotate(180)"/></g></g></g></svg>