<svg xmlns="http://www.w3.org/2000/svg" xmlns:xlink="http://www.w3.org/1999/xlink" viewBox="0 0 176.5 176.5"><defs><style>.cls-1{isolation:isolate;}.cls-2{fill:url(#Безымянный_градиент_75);}.cls-3,.cls-4{mix-blend-mode:lighten;}.cls-3{fill:url(#Безымянный_градиент_75-2);}.cls-4{fill:url(#Безымянный_градиент_75-3);}.cls-5,.cls-6,.cls-7{mix-blend-mode:multiply;}.cls-5{fill:url(#Polished_Brass);}.cls-6{fill:url(#Gold);}.cls-7{fill:url(#Brass_Radial);}</style><linearGradient id="Безымянный_градиент_75" x1="22" y1="77.25" x2="176.5" y2="77.25" gradientTransform="translate(198.5 154.5) rotate(-180)" gradientUnits="userSpaceOnUse"><stop offset="0" stop-color="#000039"/><stop offset="0.5" stop-color="#948c9d"/><stop offset="1" stop-color="#1b1464"/></linearGradient><linearGradient id="Безымянный_градиент_75-2" x1="0" y1="165.5" x2="176.5" y2="165.5" gradientTransform="matrix(1, 0, 0, 1, 0, 0)" xlink:href="#Безымянный_градиент_75"/><linearGradient id="Безымянный_градиент_75-3" x1="0" y1="88.25" x2="22" y2="88.25" gradientTransform="matrix(1, 0, 0, 1, 0, 0)" xlink:href="#Безымянный_градиент_75"/><linearGradient id="Polished_Brass" y1="11" x2="176.5" y2="11" gradientUnits="userSpaceOnUse"><stop offset="0.01" stop-color="#efc981"/><stop offset="0.19" stop-color="#f2d78f"/><stop offset="0.41" stop-color="#f8f0e4"/><stop offset="0.73" stop-color="#c58511"/><stop offset="0.9" stop-color="#e5b76d"/><stop offset="0.95" stop-color="#eec687"/></linearGradient><linearGradient id="Gold" x1="154.5" y1="88.25" x2="176.5" y2="88.25" gradientUnits="userSpaceOnUse"><stop offset="0.01" stop-color="#fccb00"/><stop offset="0.25" stop-color="#fffad2"/><stop offset="0.3" stop-color="#faf1c1"/><stop offset="0.39" stop-color="#edd894"/><stop offset="0.51" stop-color="#d8b14c"/><stop offset="0.6" stop-color="#c9961a"/><stop offset="0.81" stop-color="#e9cd76"/><stop offset="0.87" stop-color="#f2dc8e"/><stop offset="1" stop-color="#fffad2"/></linearGradient><radialGradient id="Brass_Radial" cx="77.25" cy="99.25" r="77.25" gradientTransform="translate(154.5 198.5) rotate(-180)" gradientUnits="userSpaceOnUse"><stop offset="0.18" stop-color="#f8f0e4"/><stop offset="0.59" stop-color="#f2d78f"/><stop offset="1" stop-color="#c58511"/></radialGradient></defs><title>Qbb</title><g class="cls-1"><g id="Слой_2" data-name="Слой 2"><g id="Слой_1-2" data-name="Слой 1"><rect class="cls-2" x="22" width="154.5" height="154.5" transform="translate(198.5 154.5) rotate(180)"/><polygon class="cls-3" points="22 154.5 176.5 154.5 154.5 176.5 0 176.5 22 154.5"/><polygon class="cls-4" points="0 22 0 176.5 22 154.5 22 0 0 22"/><polygon class="cls-5" points="22 0 176.5 0 154.5 22 0 22 22 0"/><polygon class="cls-6" points="154.5 22 154.5 176.5 176.5 154.5 176.5 0 154.5 22"/><rect class="cls-7" y="22" width="154.5" height="154.5" transform="translate(154.5 198.5) rotate(180)"/></g></g></g></svg>