<svg xmlns="http://www.w3.org/2000/svg" xmlns:xlink="http://www.w3.org/1999/xlink" viewBox="0 0 509.5 509.5"><defs><style>.cls-1{isolation:isolate;}.cls-2,.cls-6{mix-blend-mode:multiply;}.cls-2{fill:url(#Безымянный_градиент_96);}.cls-3{mix-blend-mode:darken;fill:url(#Безымянный_градиент_83);}.cls-4,.cls-7{mix-blend-mode:screen;}.cls-4{fill:url(#Безымянный_градиент_96-2);}.cls-5{mix-blend-mode:lighten;fill:url(#Безымянный_градиент_98);}.cls-6{fill:url(#Безымянный_градиент_100);}.cls-7{fill:url(#Безымянный_градиент_96-3);}</style><radialGradient id="Безымянный_градиент_96" cx="286.5" cy="223" r="223" gradientTransform="translate(573 446) rotate(-180)" gradientUnits="userSpaceOnUse"><stop offset="0" stop-color="blue"/><stop offset="0.31" stop-color="#fff"/><stop offset="0.56" stop-color="#00f4ff"/><stop offset="1" stop-color="#1b1464"/></radialGradient><linearGradient id="Безымянный_градиент_83" y1="477.75" x2="509.5" y2="477.75" gradientUnits="userSpaceOnUse"><stop offset="0" stop-color="blue"/><stop offset="0.56" stop-color="#00f4ff"/><stop offset="1" stop-color="#1b1464"/></linearGradient><radialGradient id="Безымянный_градиент_96-2" cx="31.75" cy="254.75" r="41.51" gradientTransform="translate(0 -1395.12) scale(1 6.48)" xlink:href="#Безымянный_градиент_96"/><radialGradient id="Безымянный_градиент_98" cx="64.05" cy="385.19" r="453.39" gradientTransform="translate(446 573) rotate(-180)" gradientUnits="userSpaceOnUse"><stop offset="0" stop-color="blue"/><stop offset="0.16" stop-color="#00f4ff"/><stop offset="0.28" stop-color="#fff"/><stop offset="0.63" stop-color="#1b1464"/></radialGradient><radialGradient id="Безымянный_градиент_100" cx="254.75" cy="31.75" r="289.41" gradientTransform="translate(0 23.32) scale(1 0.27)" gradientUnits="userSpaceOnUse"><stop offset="0" stop-color="blue"/><stop offset="0.21" stop-color="#fff"/><stop offset="0.51" stop-color="#1b1464"/><stop offset="0.56" stop-color="#00f4ff"/></radialGradient><radialGradient id="Безымянный_градиент_96-3" cx="477.75" cy="254.75" r="40.81" gradientTransform="translate(0 -1629.74) scale(1 7.4)" xlink:href="#Безымянный_градиент_96"/></defs><title>Qd</title><g class="cls-1"><g id="Слой_2" data-name="Слой 2"><g id="Слой_1-2" data-name="Слой 1"><rect class="cls-2" x="63.5" width="446" height="446" transform="translate(573 446) rotate(180)"/><polygon class="cls-3" points="63.5 446 509.5 446 446 509.5 0 509.5 63.5 446"/><polygon class="cls-4" points="0 63.5 0 509.5 63.5 446 63.5 0 0 63.5"/><rect class="cls-5" y="63.5" width="446" height="446" transform="translate(446 573) rotate(180)"/><polygon class="cls-6" points="63.5 0 509.5 0 446 63.5 0 63.5 63.5 0"/><polygon class="cls-7" points="446 63.5 446 509.5 509.5 446 509.5 0 446 63.5"/></g></g></g></svg>