<svg xmlns="http://www.w3.org/2000/svg" xmlns:xlink="http://www.w3.org/1999/xlink" viewBox="0 0 176.5 176.5"><defs><style>.cls-1{isolation:isolate;}.cls-2{fill:url(#Безымянный_градиент_17);}.cls-3{fill:url(#Безымянный_градиент_18);}.cls-4{fill:url(#Безымянный_градиент_18-2);}.cls-10,.cls-11,.cls-5,.cls-8,.cls-9{mix-blend-mode:darken;}.cls-5{fill:url(#Безымянный_градиент_17-2);}.cls-6,.cls-7{mix-blend-mode:lighten;}.cls-6{fill:url(#Безымянный_градиент_17-3);}.cls-7{fill:url(#Безымянный_градиент_16);}.cls-8{fill:url(#Безымянный_градиент_14);}.cls-9{fill:url(#Безымянный_градиент_13);}.cls-10{fill:url(#Безымянный_градиент_12);}.cls-11{fill:url(#Безымянный_градиент_12-2);}.cls-12{mix-blend-mode:overlay;fill:url(#Безымянный_градиент_11);}</style><linearGradient id="Безымянный_градиент_17" x1="170.68" y1="151.67" x2="12.21" y2="29.75" gradientUnits="userSpaceOnUse"><stop offset="0.49" stop-color="#0e0e0f"/><stop offset="0.6" stop-color="#717980"/><stop offset="0.61" stop-color="#6b7380"/><stop offset="0.7" stop-color="#1f2b30"/><stop offset="0.82" stop-color="#a1a1a1"/><stop offset="0.96" stop-color="#1f2b30"/></linearGradient><linearGradient id="Безымянный_градиент_18" x1="22" y1="77.25" x2="176.5" y2="77.25" gradientTransform="translate(198.5 154.5) rotate(-180)" gradientUnits="userSpaceOnUse"><stop offset="0" stop-color="#0e0e0f"/><stop offset="0.51" stop-color="#717980"/><stop offset="0.71" stop-color="#6b7380"/><stop offset="1" stop-color="#1f2b30"/></linearGradient><linearGradient id="Безымянный_градиент_18-2" x1="42.46" y1="165.5" x2="73.61" y2="165.5" gradientTransform="matrix(1, 0, 0, 1, 0, 0)" xlink:href="#Безымянный_градиент_18"/><linearGradient id="Безымянный_градиент_17-2" x1="240.35" y1="-3.31" x2="-12.15" y2="148.69" xlink:href="#Безымянный_градиент_17"/><linearGradient id="Безымянный_градиент_17-3" x1="-17.46" y1="165.43" x2="158.54" y2="36.93" xlink:href="#Безымянный_градиент_17"/><linearGradient id="Безымянный_градиент_16" x1="-4.68" y1="93.48" x2="15.1" y2="86.88" gradientUnits="userSpaceOnUse"><stop offset="0" stop-color="#0e0e0f"/><stop offset="0.53" stop-color="#717980"/><stop offset="0.71" stop-color="#6b7380"/><stop offset="1" stop-color="#1f2b30"/></linearGradient><linearGradient id="Безымянный_градиент_14" x1="15.65" y1="88.12" x2="-30.35" y2="89.45" gradientUnits="userSpaceOnUse"><stop offset="0" stop-color="#6b7380"/><stop offset="0.5" stop-color="#0e0e0f"/><stop offset="0.68" stop-color="#717980"/><stop offset="1" stop-color="#1f2b30"/></linearGradient><linearGradient id="Безымянный_градиент_13" x1="88.25" y1="0.83" x2="88.25" y2="34.42" gradientUnits="userSpaceOnUse"><stop offset="0" stop-color="#0e0e0f"/><stop offset="0.55" stop-color="#6b7380"/><stop offset="0.78" stop-color="#717980"/><stop offset="1" stop-color="#1f2b30"/></linearGradient><linearGradient id="Безымянный_градиент_12" x1="165.5" y1="18.48" x2="165.5" y2="169.37" gradientUnits="userSpaceOnUse"><stop offset="0" stop-color="#1f2b30"/><stop offset="0.2" stop-color="#0e0e0f"/><stop offset="0.38" stop-color="#6b7380"/><stop offset="0.57" stop-color="#717980"/><stop offset="0.82" stop-color="#a1a1a1"/><stop offset="1" stop-color="#1f2b30"/></linearGradient><linearGradient id="Безымянный_градиент_12-2" x1="188.55" y1="91.04" x2="144.55" y2="85.71" xlink:href="#Безымянный_градиент_12"/><linearGradient id="Безымянный_градиент_11" x1="129.29" y1="76.28" x2="-15.71" y2="140.28" gradientTransform="translate(154.5 198.5) rotate(-180)" gradientUnits="userSpaceOnUse"><stop offset="0" stop-color="#0e0e0f"/><stop offset="0.54" stop-color="#717980"/><stop offset="0.9" stop-color="#6b7380"/><stop offset="1" stop-color="#1f2b30"/></linearGradient></defs><title>Qf</title><g class="cls-1"><g id="Слой_2" data-name="Слой 2"><g id="Слой_2-2" data-name="Слой 2"><polygon class="cls-2" points="0 22 22 0 176.5 0 176.5 154.5 154.5 176.5 0 176.5 0 22"/><rect class="cls-3" x="22" width="154.5" height="154.5" transform="translate(198.5 154.5) rotate(180)"/><polygon class="cls-4" points="22 154.5 176.5 154.5 154.5 176.5 0 176.5 22 154.5"/><polygon class="cls-5" points="0 22 22 0 176.5 0 176.5 154.5 154.5 176.5 0 176.5 0 22"/><polygon class="cls-6" points="0 22 22 0 176.5 0 176.5 154.5 154.5 176.5 0 176.5 0 22"/><polygon class="cls-7" points="0 22 0 176.5 22 154.5 22 0 0 22"/><polygon class="cls-8" points="0 22 0 176.5 22 154.5 22 0 0 22"/><polygon class="cls-9" points="22 0 176.5 0 154.5 22 0 22 22 0"/><polygon class="cls-10" points="154.5 22 154.5 176.5 176.5 154.5 176.5 0 154.5 22"/><polygon class="cls-11" points="154.5 22 154.5 176.5 176.5 154.5 176.5 0 154.5 22"/><rect class="cls-12" y="22" width="154.5" height="154.5" transform="translate(154.5 198.5) rotate(180)"/></g></g></g></svg>