<svg xmlns="http://www.w3.org/2000/svg" xmlns:xlink="http://www.w3.org/1999/xlink" viewBox="0 0 176.5 176.5"><defs><style>.cls-1{isolation:isolate;}.cls-2{fill:url(#Безымянный_градиент_63);}.cls-3,.cls-5{mix-blend-mode:multiply;}.cls-3{fill:url(#Безымянный_градиент_85);}.cls-4{mix-blend-mode:darken;fill:url(#Безымянный_градиент_69);}.cls-5{fill:url(#Безымянный_градиент_69-2);}.cls-6{mix-blend-mode:overlay;fill:url(#Безымянный_градиент_70);}</style><linearGradient id="Безымянный_градиент_63" x1="170.68" y1="151.67" x2="12.21" y2="29.75" gradientUnits="userSpaceOnUse"><stop offset="0.49" stop-color="#000039"/><stop offset="0.6" stop-color="#aebbc5"/><stop offset="0.61" stop-color="#8c97aa"/><stop offset="0.7" stop-color="#1b1464"/><stop offset="0.82" stop-color="#4f5084"/><stop offset="0.96" stop-color="#1b1464"/></linearGradient><linearGradient id="Безымянный_градиент_85" x1="88.25" y1="0.83" x2="88.25" y2="34.42" gradientUnits="userSpaceOnUse"><stop offset="0" stop-color="#000039"/><stop offset="0.55" stop-color="#8c97aa"/><stop offset="0.78" stop-color="#aebbc5"/><stop offset="1" stop-color="#1b1464"/></linearGradient><linearGradient id="Безымянный_градиент_69" x1="165.5" y1="18.48" x2="165.5" y2="169.37" gradientUnits="userSpaceOnUse"><stop offset="0" stop-color="#1b1464"/><stop offset="0.2" stop-color="#000039"/><stop offset="0.38" stop-color="#8c97aa"/><stop offset="0.57" stop-color="#aebbc5"/><stop offset="0.82" stop-color="#4f5084"/><stop offset="1" stop-color="#1b1464"/></linearGradient><linearGradient id="Безымянный_градиент_69-2" x1="188.55" y1="91.04" x2="144.55" y2="85.71" xlink:href="#Безымянный_градиент_69"/><linearGradient id="Безымянный_градиент_70" x1="33.1" y1="86.09" x2="90.83" y2="103.3" gradientTransform="translate(154.5 198.5) rotate(-180)" gradientUnits="userSpaceOnUse"><stop offset="0" stop-color="#000039"/><stop offset="0.54" stop-color="#aebbc5"/><stop offset="0.9" stop-color="#8c97aa"/><stop offset="1" stop-color="#1b1464"/></linearGradient></defs><title>Qh</title><g class="cls-1"><g id="Слой_2" data-name="Слой 2"><g id="Слой_2-2" data-name="Слой 2"><polygon class="cls-2" points="0 22 22 0 176.5 0 176.5 154.5 154.5 176.5 0 176.5 0 22"/><polygon class="cls-3" points="22 0 176.5 0 154.5 22 0 22 22 0"/><polygon class="cls-4" points="154.5 22 154.5 176.5 176.5 154.5 176.5 0 154.5 22"/><polygon class="cls-5" points="154.5 22 154.5 176.5 176.5 154.5 176.5 0 154.5 22"/><rect class="cls-6" y="22" width="154.5" height="154.5" transform="translate(154.5 198.5) rotate(180)"/></g></g></g></svg>