<svg xmlns="http://www.w3.org/2000/svg" xmlns:xlink="http://www.w3.org/1999/xlink" viewBox="0 0 176.5 176.5"><defs><style>.cls-1{isolation:isolate;}.cls-2,.cls-3,.cls-4{mix-blend-mode:multiply;}.cls-2{fill:url(#Безымянный_градиент_83);}.cls-3{fill:url(#Безымянный_градиент_83-2);}.cls-4{fill:url(#Безымянный_градиент_83-3);}.cls-5,.cls-6{mix-blend-mode:lighten;}.cls-5{fill:url(#Безымянный_градиент_95);}.cls-6{fill:url(#Безымянный_градиент_95-2);}.cls-7{mix-blend-mode:darken;fill:url(#Безымянный_градиент_83-4);}.cls-8{mix-blend-mode:screen;fill:url(#Безымянный_градиент_83-5);}</style><linearGradient id="Безымянный_градиент_83" x1="173.54" y1="77.25" x2="28.43" y2="77.25" gradientTransform="translate(198.5 154.5) rotate(-180)" gradientUnits="userSpaceOnUse"><stop offset="0" stop-color="blue"/><stop offset="0.56" stop-color="#00f4ff"/><stop offset="1" stop-color="#1b1464"/></linearGradient><linearGradient id="Безымянный_градиент_83-2" x1="88.25" y1="175" x2="88.25" y2="162.49" gradientTransform="matrix(1, 0, 0, 1, 0, 0)" xlink:href="#Безымянный_градиент_83"/><linearGradient id="Безымянный_градиент_83-3" x1="25.91" y1="88.25" x2="-7.84" y2="88.25" gradientTransform="matrix(1, 0, 0, 1, 0, 0)" xlink:href="#Безымянный_градиент_83"/><radialGradient id="Безымянный_градиент_95" cx="22.9" cy="28.83" r="113.95" gradientTransform="translate(154.5 198.5) rotate(-180)" gradientUnits="userSpaceOnUse"><stop offset="0" stop-color="blue"/><stop offset="0.31" stop-color="#fff"/><stop offset="0.56" stop-color="#00f4ff"/><stop offset="1" stop-color="#1b1464"/></radialGradient><radialGradient id="Безымянный_градиент_95-2" cx="151.23" cy="168.5" r="106.2" xlink:href="#Безымянный_градиент_95"/><linearGradient id="Безымянный_градиент_83-4" x1="88.25" y1="28.09" x2="88.25" y2="-1.3" gradientTransform="matrix(1, 0, 0, 1, 0, 0)" xlink:href="#Безымянный_градиент_83"/><linearGradient id="Безымянный_градиент_83-5" x1="182.49" y1="88.25" x2="143.33" y2="88.25" gradientTransform="matrix(1, 0, 0, 1, 0, 0)" xlink:href="#Безымянный_градиент_83"/></defs><title>Ql</title><g class="cls-1"><g id="Слой_2" data-name="Слой 2"><g id="Слой_1-2" data-name="Слой 1"><rect class="cls-2" x="22" width="154.5" height="154.5" transform="translate(198.5 154.5) rotate(180)"/><polygon class="cls-3" points="22 154.5 176.5 154.5 154.5 176.5 0 176.5 22 154.5"/><polygon class="cls-4" points="0 22 0 176.5 22 154.5 22 0 0 22"/><rect class="cls-5" y="22" width="154.5" height="154.5" transform="translate(154.5 198.5) rotate(180)"/><rect class="cls-6" y="22" width="154.5" height="154.5" transform="translate(154.5 198.5) rotate(180)"/><polygon class="cls-7" points="22 0 176.5 0 154.5 22 0 22 22 0"/><polygon class="cls-8" points="154.5 22 154.5 176.5 176.5 154.5 176.5 0 154.5 22"/></g></g></g></svg>