<svg xmlns="http://www.w3.org/2000/svg" xmlns:xlink="http://www.w3.org/1999/xlink" viewBox="0 0 176.5 176.5"><defs><style>.cls-1{isolation:isolate;}.cls-2{mix-blend-mode:darken;fill:url(#Безымянный_градиент_25);}.cls-3{mix-blend-mode:lighten;fill:url(#Безымянный_градиент_25-2);}.cls-4{mix-blend-mode:multiply;fill:url(#Безымянный_градиент_21);}.cls-5,.cls-6,.cls-7,.cls-8{mix-blend-mode:overlay;}.cls-5{fill:url(#Sky_18);}.cls-6{fill:url(#Безымянный_градиент_19);}.cls-7{fill:url(#Безымянный_градиент_19-2);}.cls-8{fill:url(#Sky_23);}</style><linearGradient id="Безымянный_градиент_25" x1="170.68" y1="151.67" x2="12.21" y2="29.75" gradientUnits="userSpaceOnUse"><stop offset="0.49" stop-color="#51032a"/><stop offset="0.6" stop-color="#e9d3ef"/><stop offset="0.61" stop-color="#d3afd4"/><stop offset="0.7" stop-color="#8e1c44"/><stop offset="0.82" stop-color="#ae688d"/><stop offset="0.96" stop-color="#8e1c44"/></linearGradient><linearGradient id="Безымянный_градиент_25-2" x1="-28" y1="138.35" x2="195.94" y2="41.84" xlink:href="#Безымянный_градиент_25"/><linearGradient id="Безымянный_градиент_21" x1="88.25" y1="0.83" x2="88.25" y2="34.42" gradientUnits="userSpaceOnUse"><stop offset="0" stop-color="#51032a"/><stop offset="0.55" stop-color="#d3afd4"/><stop offset="0.78" stop-color="#e9d3ef"/><stop offset="1" stop-color="#8e1c44"/></linearGradient><linearGradient id="Sky_18" x1="88.25" y1="20.41" x2="88.25" y2="-9.34" gradientUnits="userSpaceOnUse"><stop offset="0" stop-color="#ce7329"/><stop offset="0.13" stop-color="#ef9248"/><stop offset="0.33" stop-color="#f7c782"/><stop offset="0.39" stop-color="#fad895"/><stop offset="0.54" stop-color="#e3c4ad"/><stop offset="0.71" stop-color="#ceb1bd"/><stop offset="0.77" stop-color="#bf9bae"/><stop offset="0.87" stop-color="#a77995"/><stop offset="0.95" stop-color="#986486"/><stop offset="1" stop-color="#935c81"/></linearGradient><linearGradient id="Безымянный_градиент_19" x1="188.55" y1="91.04" x2="144.55" y2="85.71" gradientUnits="userSpaceOnUse"><stop offset="0" stop-color="#51032a"/><stop offset="0.54" stop-color="#e9d3ef"/><stop offset="0.9" stop-color="#d3afd4"/><stop offset="1" stop-color="#8e1c44"/></linearGradient><linearGradient id="Безымянный_градиент_19-2" x1="32.82" y1="72.59" x2="107.33" y2="117.3" gradientTransform="translate(154.5 198.5) rotate(-180)" xlink:href="#Безымянный_градиент_19"/><linearGradient id="Sky_23" x1="148.38" y1="116.55" x2="36.09" y2="89.24" gradientTransform="translate(154.5 198.5) rotate(-180)" gradientUnits="userSpaceOnUse"><stop offset="0.02" stop-color="#6e2a45"/><stop offset="0.43" stop-color="#ec765f"/><stop offset="0.6" stop-color="#9b738b"/><stop offset="0.81" stop-color="#6d2a45"/><stop offset="1" stop-color="#eb7359"/></linearGradient></defs><title>Qr</title><g class="cls-1"><g id="Слой_2" data-name="Слой 2"><g id="Слой_2-2" data-name="Слой 2"><polygon class="cls-2" points="0 22 22 0 176.5 0 176.5 154.5 154.5 176.5 0 176.5 0 22"/><polygon class="cls-3" points="0 22 22 0 176.5 0 176.5 154.5 154.5 176.5 0 176.5 0 22"/><polygon class="cls-4" points="22 0 176.5 0 154.5 22 0 22 22 0"/><polygon class="cls-5" points="22 0 176.5 0 154.5 22 0 22 22 0"/><polygon class="cls-6" points="154.5 22 154.5 176.5 176.5 154.5 176.5 0 154.5 22"/><rect class="cls-7" y="22" width="154.5" height="154.5" transform="translate(154.5 198.5) rotate(180)"/><rect class="cls-8" y="22" width="154.5" height="154.5" transform="translate(154.5 198.5) rotate(180)"/></g></g></g></svg>