<svg xmlns="http://www.w3.org/2000/svg" viewBox="0 0 178.5 172"><defs><style>.cls-1{fill:#007cff;}</style></defs><title>Qtoff</title><g id="Слой_2" data-name="Слой 2"><g id="Слой_1-2" data-name="Слой 1"><rect class="cls-1" x="151.56" y="9.23" width="26.93" height="2" transform="translate(41.1 119.69) rotate(-45)"/><rect class="cls-1" x="0.01" y="160.78" width="26.93" height="2" transform="translate(-110.45 56.91) rotate(-45)"/><rect class="cls-1" x="1" y="18.75" width="45.11" height="2"/><polygon class="cls-1" points="2 64.86 0 64.86 0 19.34 19.34 0 20.75 1.41 2 20.16 2 64.86"/><rect class="cls-1" x="110.39" y="18.75" width="45.11" height="2"/><rect class="cls-1" x="154.5" y="19.75" width="2" height="45.11"/><rect class="cls-1" x="23" y="151.25" width="45.11" height="2"/><rect class="cls-1" x="22" y="107.14" width="2" height="45.11"/><rect class="cls-1" x="132.39" y="151.25" width="45.11" height="2"/><polygon class="cls-1" points="159.16 172 157.75 170.59 176.5 151.84 176.5 107.14 178.5 107.14 178.5 152.67 159.16 172"/></g></g></svg>