<svg xmlns="http://www.w3.org/2000/svg" xmlns:xlink="http://www.w3.org/1999/xlink" viewBox="0 0 176.5 176.5"><defs><style>.cls-1{isolation:isolate;}.cls-2{fill:url(#Безымянный_градиент_7);}.cls-3{fill:url(#Безымянный_градиент_5);}.cls-4{fill:url(#Безымянный_градиент_4);}.cls-5,.cls-7{mix-blend-mode:darken;}.cls-5{fill:url(#Безымянный_градиент_3);}.cls-6{mix-blend-mode:overlay;fill:url(#Безымянный_градиент_3-2);}.cls-7{fill:url(#Безымянный_градиент_2);}</style><linearGradient id="Безымянный_градиент_7" x1="76.83" y1="-7.2" x2="125.05" y2="174.43" gradientTransform="translate(198.5 154.5) rotate(-180)" gradientUnits="userSpaceOnUse"><stop offset="0" stop-color="#4539ff"/><stop offset="0.56" stop-color="#d4f9ff"/><stop offset="1" stop-color="#261b64"/></linearGradient><linearGradient id="Безымянный_градиент_5" x1="88.25" y1="183.16" x2="88.25" y2="135.56" gradientUnits="userSpaceOnUse"><stop offset="0" stop-color="#d4f9ff"/><stop offset="0.71" stop-color="#4539ff"/><stop offset="1" stop-color="#261b64"/></linearGradient><linearGradient id="Безымянный_градиент_4" x1="-72.66" y1="88.25" x2="56.47" y2="88.25" gradientUnits="userSpaceOnUse"><stop offset="0.03" stop-color="#4539ff"/><stop offset="0.16" stop-color="#d4f9ff"/><stop offset="0.34" stop-color="#fff"/><stop offset="0.63" stop-color="#261b64"/></linearGradient><linearGradient id="Безымянный_градиент_3" x1="-9.1" y1="117.51" x2="280.42" y2="56.28" gradientTransform="translate(154.5 198.5) rotate(-180)" gradientUnits="userSpaceOnUse"><stop offset="0" stop-color="#d4f9ff"/><stop offset="0.34" stop-color="#fff"/><stop offset="0.63" stop-color="#261b64"/></linearGradient><linearGradient id="Безымянный_градиент_3-2" x1="88.25" y1="41.72" x2="88.25" y2="-49.9" gradientTransform="matrix(1, 0, 0, 1, 0, 0)" xlink:href="#Безымянный_градиент_3"/><linearGradient id="Безымянный_градиент_2" x1="198.45" y1="88.25" x2="156.07" y2="88.25" gradientUnits="userSpaceOnUse"><stop offset="0" stop-color="#4539ff"/><stop offset="0.42" stop-color="#261b64"/><stop offset="0.83" stop-color="#d4f9ff"/></linearGradient></defs><title>Qum</title><g class="cls-1"><g id="Слой_2" data-name="Слой 2"><g id="Слой_1-2" data-name="Слой 1"><rect class="cls-2" x="22" width="154.5" height="154.5" transform="translate(198.5 154.5) rotate(180)"/><polygon class="cls-3" points="22 154.5 176.5 154.5 154.5 176.5 0 176.5 22 154.5"/><polygon class="cls-4" points="0 22 0 176.5 22 154.5 22 0 0 22"/><rect class="cls-5" y="22" width="154.5" height="154.5" transform="translate(154.5 198.5) rotate(180)"/><polygon class="cls-6" points="22 0 176.5 0 154.5 22 0 22 22 0"/><polygon class="cls-7" points="154.5 22 154.5 176.5 176.5 154.5 176.5 0 154.5 22"/></g></g></g></svg>