<svg xmlns="http://www.w3.org/2000/svg" xmlns:xlink="http://www.w3.org/1999/xlink" viewBox="0 0 176.5 176.5"><defs><style>.cls-1{isolation:isolate;}.cls-2,.cls-4{fill:url(#Безымянный_градиент_38);}.cls-3{fill:url(#Безымянный_градиент_37);}.cls-4{mix-blend-mode:darken;}.cls-5,.cls-6{mix-blend-mode:lighten;}.cls-5{fill:url(#Безымянный_градиент_38-3);}.cls-6{fill:url(#Безымянный_градиент_37-2);}.cls-7,.cls-8,.cls-9{mix-blend-mode:overlay;}.cls-7{fill:url(#Безымянный_градиент_36);}.cls-8{fill:url(#Безымянный_градиент_35);}.cls-9{fill:url(#Безымянный_градиент_877);}</style><linearGradient id="Безымянный_градиент_38" x1="170.68" y1="151.67" x2="12.21" y2="29.75" gradientUnits="userSpaceOnUse"><stop offset="0.49" stop-color="#1c1e52"/><stop offset="0.6" stop-color="#836e99"/><stop offset="0.61" stop-color="#3f1f2f"/><stop offset="0.7" stop-color="#07060a"/><stop offset="0.82" stop-color="#45312a"/><stop offset="0.96" stop-color="#07060a"/></linearGradient><linearGradient id="Безымянный_градиент_37" y1="99.25" x2="154.5" y2="99.25" gradientTransform="translate(154.5 198.5) rotate(-180)" gradientUnits="userSpaceOnUse"><stop offset="0" stop-color="#1c1e52"/><stop offset="0.51" stop-color="#836e99"/><stop offset="0.71" stop-color="#3f1f2f"/><stop offset="1" stop-color="#07060a"/></linearGradient><linearGradient id="Безымянный_градиент_38-3" x1="-28" y1="138.35" x2="195.94" y2="41.84" xlink:href="#Безымянный_градиент_38"/><linearGradient id="Безымянный_градиент_37-2" x1="134.81" y1="22.52" x2="44.76" y2="0.23" gradientTransform="matrix(1, 0, 0, 1, 0, 0)" xlink:href="#Безымянный_градиент_37"/><linearGradient id="Безымянный_градиент_36" x1="88.25" y1="0.83" x2="88.25" y2="34.42" gradientUnits="userSpaceOnUse"><stop offset="0" stop-color="#1c1e52"/><stop offset="0.55" stop-color="#3f1f2f"/><stop offset="0.78" stop-color="#836e99"/><stop offset="1" stop-color="#07060a"/></linearGradient><linearGradient id="Безымянный_градиент_35" x1="185.29" y1="84.63" x2="141.54" y2="92.63" gradientUnits="userSpaceOnUse"><stop offset="0" stop-color="#07060a"/><stop offset="0.2" stop-color="#1c1e52"/><stop offset="0.38" stop-color="#3f1f2f"/><stop offset="0.57" stop-color="#836e99"/><stop offset="0.82" stop-color="#45312a"/><stop offset="1" stop-color="#07060a"/></linearGradient><linearGradient id="Безымянный_градиент_877" x1="-17.61" y1="72.02" x2="200.52" y2="134.63" gradientTransform="translate(154.5 198.5) rotate(-180)" gradientUnits="userSpaceOnUse"><stop offset="0" stop-color="#1c1e52"/><stop offset="0.05" stop-color="#3f1f28"/><stop offset="0.45" stop-color="#836e63"/><stop offset="0.69" stop-color="#310e4c"/></linearGradient></defs><title>Qwd</title><g class="cls-1"><g id="Слой_2" data-name="Слой 2"><g id="Слой_2-2" data-name="Слой 2"><polygon class="cls-2" points="0 22 22 0 176.5 0 176.5 154.5 154.5 176.5 0 176.5 0 22"/><rect class="cls-3" y="22" width="154.5" height="154.5" transform="translate(154.5 198.5) rotate(180)"/><polygon class="cls-4" points="0 22 22 0 176.5 0 176.5 154.5 154.5 176.5 0 176.5 0 22"/><polygon class="cls-5" points="0 22 22 0 176.5 0 176.5 154.5 154.5 176.5 0 176.5 0 22"/><polygon class="cls-6" points="22 0 176.5 0 154.5 22 0 22 22 0"/><polygon class="cls-7" points="22 0 176.5 0 154.5 22 0 22 22 0"/><polygon class="cls-8" points="154.5 22 154.5 176.5 176.5 154.5 176.5 0 154.5 22"/><rect class="cls-9" y="22" width="154.5" height="154.5" transform="translate(154.5 198.5) rotate(180)"/></g></g></g></svg>