<svg xmlns="http://www.w3.org/2000/svg" xmlns:xlink="http://www.w3.org/1999/xlink" viewBox="0 0 176.5 176.5"><defs><style>.cls-1{isolation:isolate;}.cls-2{fill:url(#Безымянный_градиент_161);}.cls-3{mix-blend-mode:hard-light;fill:url(#Безымянный_градиент_171);}.cls-4,.cls-5,.cls-6{mix-blend-mode:soft-light;}.cls-4{fill:url(#Безымянный_градиент_149);}.cls-5{fill:url(#Безымянный_градиент_190);}.cls-6{fill:url(#Безымянный_градиент_190-2);}</style><radialGradient id="Безымянный_градиент_161" cx="88.25" cy="88.25" r="88.25" gradientUnits="userSpaceOnUse"><stop offset="0" stop-color="#fff"/><stop offset="0.95" stop-color="#171209"/><stop offset="0.96" stop-color="#322"/></radialGradient><radialGradient id="Безымянный_градиент_171" cx="2.13" cy="23.45" r="211.83" gradientUnits="userSpaceOnUse"><stop offset="0" stop-color="#bda78c"/><stop offset="0.95" stop-color="#7a6030"/></radialGradient><linearGradient id="Безымянный_градиент_149" x1="13.08" y1="112.82" x2="167.74" y2="80.11" gradientTransform="translate(154.5 198.5) rotate(-180)" gradientUnits="userSpaceOnUse"><stop offset="0" stop-color="#1d6f6a"/><stop offset="0.5" stop-color="#282826"/><stop offset="1" stop-color="#fff"/></linearGradient><linearGradient id="Безымянный_градиент_190" x1="174.83" y1="11" x2="-7.95" y2="11" gradientUnits="userSpaceOnUse"><stop offset="0" stop-color="#54974b"/><stop offset="1" stop-color="#282826"/></linearGradient><linearGradient id="Безымянный_градиент_190-2" x1="196.21" y1="88.25" x2="155.78" y2="88.25" xlink:href="#Безымянный_градиент_190"/></defs><title>sfera-wud</title><g class="cls-1"><g id="Слой_2" data-name="Слой 2"><g id="Слой_1-2" data-name="Слой 1"><polygon class="cls-2" points="22 0 176.5 0 176.5 154.5 154.5 176.5 0 176.5 0 22 22 0"/><polygon class="cls-3" points="22 0 176.5 0 176.5 154.5 154.5 176.5 0 176.5 0 22 22 0"/><rect class="cls-4" y="22" width="154.5" height="154.5" transform="translate(154.5 198.5) rotate(180)"/><polygon class="cls-5" points="22 0 176.5 0 154.5 22 0 22 22 0"/><polygon class="cls-6" points="154.5 22 154.5 176.5 176.5 154.5 176.5 0 154.5 22"/></g></g></g></svg>