<svg xmlns="http://www.w3.org/2000/svg" xmlns:xlink="http://www.w3.org/1999/xlink" viewBox="0 0 176.5 176.5"><defs><style>.cls-1{isolation:isolate;}.cls-2{fill:url(#Безымянный_градиент_8);}.cls-3,.cls-4{mix-blend-mode:lighten;}.cls-3{fill:url(#Безымянный_градиент_8-2);}.cls-4{fill:url(#Безымянный_градиент_4);}.cls-5{mix-blend-mode:overlay;fill:url(#Безымянный_градиент_3);}.cls-6{mix-blend-mode:multiply;fill:url(#Безымянный_градиент_2);}</style><linearGradient id="Безымянный_градиент_8" x1="170.68" y1="151.67" x2="12.21" y2="29.75" gradientUnits="userSpaceOnUse"><stop offset="0.49" stop-color="#000024"/><stop offset="0.6" stop-color="#aebbc5"/><stop offset="0.61" stop-color="#8c97aa"/><stop offset="0.7" stop-color="#110a21"/><stop offset="0.82" stop-color="#b8b8b8"/><stop offset="0.96" stop-color="#110a21"/></linearGradient><linearGradient id="Безымянный_градиент_8-2" x1="-17.46" y1="165.43" x2="158.54" y2="36.93" xlink:href="#Безымянный_градиент_8"/><linearGradient id="Безымянный_градиент_4" x1="88.25" y1="0.83" x2="88.25" y2="34.42" gradientUnits="userSpaceOnUse"><stop offset="0" stop-color="#000024"/><stop offset="0.55" stop-color="#8c97aa"/><stop offset="0.78" stop-color="#aebbc5"/><stop offset="1" stop-color="#110a21"/></linearGradient><linearGradient id="Безымянный_градиент_3" x1="194.28" y1="86.36" x2="67.19" y2="94.7" gradientUnits="userSpaceOnUse"><stop offset="0" stop-color="#110a21"/><stop offset="0.2" stop-color="#000024"/><stop offset="0.38" stop-color="#8c97aa"/><stop offset="0.57" stop-color="#aebbc5"/><stop offset="0.82" stop-color="#b8b8b8"/><stop offset="1" stop-color="#110a21"/></linearGradient><linearGradient id="Безымянный_градиент_2" x1="129.29" y1="76.28" x2="-15.71" y2="140.28" gradientTransform="translate(154.5 198.5) rotate(-180)" gradientUnits="userSpaceOnUse"><stop offset="0" stop-color="#000024"/><stop offset="0.54" stop-color="#aebbc5"/><stop offset="0.9" stop-color="#8c97aa"/><stop offset="1" stop-color="#110a21"/></linearGradient></defs><title>Xb</title><g class="cls-1"><g id="Слой_2" data-name="Слой 2"><g id="Слой_2-2" data-name="Слой 2"><polygon class="cls-2" points="0 22 22 0 176.5 0 176.5 154.5 154.5 176.5 0 176.5 0 22"/><polygon class="cls-3" points="0 22 22 0 176.5 0 176.5 154.5 154.5 176.5 0 176.5 0 22"/><polygon class="cls-4" points="22 0 176.5 0 154.5 22 0 22 22 0"/><polygon class="cls-5" points="154.5 22 154.5 176.5 176.5 154.5 176.5 0 154.5 22"/><rect class="cls-6" y="22" width="154.5" height="154.5" transform="translate(154.5 198.5) rotate(180)"/></g></g></g></svg>